<svg width="516" height="140" viewBox="0 0 516 140" fill="none" xmlns="http://www.w3.org/2000/svg">
<path d="M507.966 80.9274V73.6006H496.588V87.8958H485.207V55.5422H473.83V56.0278H466.778L457.839 52.4728V48.068H444.601V56.6203H434.544L433.081 58.0654H423.958V72.1237H420.348V67.7131H411.762V65.3431H396.806L387.177 69.2392V72.7942H360.878V57.7215H330.612V68.0513H316.515V16.6508H305.596L300.683 11.8241H294.837V0H293.103V21.6481H291.213V50.438H285.913V44.3424H270.79V46.3656H257.38V65.1523H254.973V69.9155H244.133V65.5136H242.586V67.375H238.46V65.5136H233.989V71.9474H222.987V66.8663H219.721V43.6661H205.621V35.7063H204.589C204.589 35.7063 204.763 23.5123 204.589 23.3418C204.416 23.1713 202.011 23.3418 202.011 23.3418V35.5503H201.144V43.6806H186.195V60.9528H181.036V58.2446H178.99V58.0047H176.909V56.8891H165.563V59.6001H149.573V71.2855H140.452V82.6327H137.874V71.1005H136.155V58.2302H102.808V60.9383H96.8773V72.878H75.4714V106.041H64.0936V92.4567H52.7129V108.064H41.3265V87.9768H29.9545V136.958H18.5767V99.2575H7.19601V117.483H0V140H516V80.9274H507.966Z" fill="white"/>
</svg>
