<svg width="504" height="266" viewBox="0 0 504 266" fill="none" xmlns="http://www.w3.org/2000/svg">
<defs>
<clipPath id="clip0">
<rect width="171.175" height="155.218" fill="white" transform="translate(308.986 81.2358)"/>
</clipPath>
</defs>
<path d="M201.343 0.628662C203.76 0.628662 205.543 1.07221 206.692 1.9593C207.837 2.83444 208.631 4.08976 208.931 5.49881C209.279 7.18019 209.313 8.91145 209.031 10.6051C208.751 12.5324 208.38 14.5405 207.916 16.6296C207.453 18.7187 206.934 20.7258 206.359 22.6508C205.834 24.4629 205.037 26.1846 203.994 27.7571C203.016 29.212 201.713 30.4202 200.189 31.2867C198.649 32.1738 196.671 32.6173 194.254 32.6173H182.155L189.251 0.638642L201.343 0.628662ZM193.475 26.6061C194.156 26.6281 194.835 26.515 195.471 26.2735C196.083 25.9695 196.578 25.4742 196.882 24.863C197.391 23.8975 197.783 22.8745 198.05 21.8158C198.415 20.5029 198.837 18.772 199.314 16.623C199.79 14.474 200.138 12.7419 200.355 11.4268C200.557 10.4245 200.618 9.39894 200.538 8.37965C200.445 7.66443 200.182 7.19205 199.753 6.96917C199.17 6.71605 198.537 6.60215 197.903 6.63651H196.24L191.809 26.6128L193.475 26.6061Z" fill="#D61B53"/>
<path d="M233.904 0.628662L232.393 7.43489H221.778L220.567 12.9005H230.507L229.057 19.4406H219.117L217.703 25.7978H228.724L227.214 32.6073H207.863L214.959 0.628662H233.904Z" fill="#D61B53"/>
<path d="M245.683 0.628662L240.108 25.7978H250.354L248.843 32.6073H230.258L237.35 0.628662H245.683Z" fill="#D61B53"/>
<path d="M266.105 0.628662L259.013 32.6073H250.68L257.775 0.628662H266.105Z" fill="#D61B53"/>
<path d="M276.002 0.628662L274.006 24.7233H274.096L282.802 0.628662H291.67L277.699 32.6073H266.937L267.27 0.628662H276.002Z" fill="#D61B53"/>
<path d="M311.962 0.628662L310.452 7.43489H299.84L298.629 12.9005H308.573L307.122 19.4406H297.179L295.769 25.7978H306.786L305.276 32.6073H285.928L293.021 0.628662H311.962Z" fill="#D61B53"/>
<path d="M328.422 0.628544C329.753 0.586555 331.078 0.799979 332.328 1.25727C333.261 1.60401 334.071 2.2185 334.657 3.0237C335.203 3.82732 335.52 4.76456 335.575 5.73489C335.649 6.877 335.554 8.02381 335.292 9.138C334.813 11.287 333.998 13.019 332.847 14.3342C331.696 15.6493 330.136 16.4554 328.166 16.7526L328.146 16.8424C330.096 17.0221 331.307 17.724 331.779 18.9482C332.251 20.1724 332.251 21.8589 331.779 24.0079L331.174 26.7391L330.884 28.0398C330.784 28.4855 330.705 28.9114 330.645 29.3139C330.588 29.6775 330.553 30.044 330.538 30.4116C330.52 30.6624 330.538 30.9145 330.591 31.1601C330.671 31.3398 330.751 31.5127 330.838 31.6758C330.951 31.8722 331.115 32.0343 331.313 32.1448L331.213 32.5939H322.381C322.259 32.1118 322.212 31.6135 322.242 31.1169C322.263 30.5469 322.314 29.9783 322.395 29.4137C322.478 28.8481 322.568 28.3026 322.667 27.7803C322.767 27.258 322.857 26.8322 322.93 26.5029L323.406 24.3539C323.58 23.6161 323.701 22.8668 323.769 22.1118C323.826 21.6358 323.772 21.1531 323.612 20.7013C323.485 20.3808 323.236 20.1236 322.92 19.9861C322.527 19.838 322.109 19.769 321.689 19.7831H319.494L316.653 32.5939H308.336L315.429 0.615234L328.422 0.628544ZM322.401 14.1545C322.927 14.1793 323.452 14.099 323.946 13.9186C324.44 13.7381 324.893 13.4609 325.279 13.1033C326.03 12.3515 326.538 11.3922 326.739 10.3489C327.039 9.01824 326.972 8.0502 326.546 7.48135C326.12 6.9125 325.279 6.62974 324.028 6.62974H322.415L320.751 14.1545H322.401Z" fill="#D61B53"/>
<path d="M337.494 0.628662H346.496L347.161 11.7794H347.251L352.86 0.628662H361.998L349.553 20.0228L346.762 32.6073H338.446L341.237 20.0228L337.494 0.628662Z" fill="#D61B53"/>
<path d="M393.88 0.628662L392.373 7.43489H381.758L380.544 12.9005H390.487L389.037 19.4406H379.093L376.166 32.6073H367.849L374.942 0.628662H393.88Z" fill="#D61B53"/>
<path d="M394.266 8.98152C394.986 7.10113 396.024 5.35904 397.336 3.83194C398.476 2.53787 399.912 1.53912 401.521 0.921162C403.308 0.276792 405.198 -0.0344077 407.097 0.00301528C409.219 0.00301528 410.943 0.309066 412.27 0.921162C413.562 1.49702 414.593 2.53516 415.16 3.83194C415.761 5.16258 416.023 6.87911 415.945 8.98152C415.801 11.5596 415.429 14.1199 414.834 16.6327C414.286 19.2359 413.524 21.7895 412.556 24.2673C411.837 26.1475 410.8 27.8896 409.489 29.4169C408.363 30.7029 406.928 31.6816 405.32 32.2611C403.528 32.8617 401.645 33.1497 399.755 33.1127C397.635 33.1127 395.907 32.8289 394.572 32.2611C393.268 31.7295 392.225 30.7085 391.665 29.4169C391.064 28.0862 390.802 26.3697 390.88 24.2673C391.025 21.6947 391.397 19.14 391.991 16.6327C392.537 14.0239 393.298 11.4648 394.266 8.98152V8.98152ZM399.492 21.9553C399.271 23.0701 399.147 24.2021 399.123 25.3384C399.123 26.1734 399.286 26.7556 399.589 27.0849C399.772 27.2613 399.991 27.3964 400.231 27.4813C400.47 27.5662 400.726 27.5989 400.979 27.5773C401.555 27.5917 402.12 27.4189 402.589 27.0849C403.139 26.6136 403.564 26.0136 403.827 25.3384C404.294 24.2429 404.672 23.1115 404.958 21.9553C405.33 20.5381 405.756 18.7551 406.235 16.6061C406.714 14.4571 407.08 12.6729 407.333 11.2536C407.554 10.1399 407.678 9.00898 407.702 7.87377C407.702 7.03879 407.539 6.45663 407.236 6.1273C407.053 5.95095 406.834 5.81581 406.594 5.7309C406.355 5.64599 406.099 5.61328 405.846 5.63496C405.27 5.6188 404.704 5.79172 404.236 6.1273C403.686 6.59865 403.261 7.19858 402.998 7.87377C402.53 8.96894 402.152 10.1004 401.867 11.2569C401.493 12.6741 401.067 14.4582 400.59 16.6094C400.113 18.7606 399.747 20.547 399.492 21.9686V21.9553Z" fill="#D61B53"/>
<path d="M434.382 0.628475C435.712 0.586486 437.037 0.79991 438.287 1.2572C439.22 1.60394 440.03 2.21843 440.616 3.02363C441.162 3.82725 441.479 4.76449 441.534 5.73482C441.608 6.87693 441.513 8.02374 441.251 9.13793C440.772 11.2869 439.957 13.019 438.806 14.3341C437.655 15.6492 436.095 16.4554 434.125 16.7525L434.105 16.8423C436.055 17.022 437.266 17.7239 437.738 18.9481C438.21 20.1723 438.21 21.8589 437.738 24.0079L437.133 26.739L436.843 28.0397C436.743 28.4855 436.664 28.9113 436.604 29.3138C436.547 29.6774 436.512 30.0439 436.497 30.4116C436.477 30.6667 436.495 30.9234 436.55 31.1734C436.63 31.353 436.713 31.526 436.797 31.689C436.91 31.8855 437.074 32.0476 437.272 32.158L437.173 32.6071H428.347C428.224 32.125 428.177 31.6267 428.207 31.1301C428.229 30.5601 428.28 29.9916 428.36 29.4269C428.444 28.8614 428.533 28.3158 428.636 27.7935C428.74 27.2713 428.823 26.8454 428.896 26.5161L429.372 24.3671C429.546 23.6293 429.667 22.88 429.734 22.125C429.792 21.6491 429.738 21.1663 429.578 20.7145C429.451 20.394 429.202 20.1369 428.886 19.9993C428.493 19.8512 428.075 19.7823 427.655 19.7964H425.46L422.619 32.6071H414.302L421.394 0.628475H434.382ZM428.36 14.1545C428.886 14.1792 429.411 14.099 429.905 13.9185C430.399 13.738 430.852 13.4608 431.238 13.1032C431.989 12.3514 432.497 11.3921 432.698 10.3488C432.998 9.01817 432.931 8.05013 432.505 7.48128C432.079 6.91243 431.241 6.62967 429.987 6.62967H428.394L426.73 14.1545H428.36Z" fill="#D61B53"/>
<path d="M179.896 42.7334H187.757L188.336 52.4704H188.412L193.313 42.7334H201.296L190.422 59.6658L187.983 70.6436H180.718L183.153 59.6658L179.896 42.7334Z" fill="#D61B53"/>
<path d="M199.41 50.0252C200.038 48.3845 200.944 46.8642 202.088 45.531C203.085 44.4004 204.34 43.5274 205.747 42.9861C207.308 42.4242 208.959 42.1526 210.617 42.1844C212.467 42.1844 213.972 42.4516 215.132 42.9861C216.259 43.4923 217.159 44.3992 217.656 45.531C218.182 46.6886 218.411 48.1867 218.342 50.0252C218.215 52.2727 217.89 54.5046 217.37 56.695C216.889 58.9637 216.221 61.189 215.374 63.3483C214.746 64.9906 213.839 66.5122 212.693 67.8458C211.71 68.9691 210.458 69.8242 209.054 70.3308C207.489 70.8523 205.846 71.1032 204.197 71.0726C202.343 71.0726 200.834 70.8254 199.67 70.3308C198.531 69.8656 197.619 68.9739 197.128 67.8458C196.605 66.6882 196.377 65.189 196.446 63.3483C196.573 61.1062 196.898 58.8797 197.417 56.695C197.895 54.4202 198.561 52.1892 199.41 50.0252V50.0252ZM203.974 61.3689C203.774 62.3404 203.663 63.328 203.642 64.3196C203.642 65.0515 203.781 65.5604 204.044 65.8465C204.205 65.9996 204.396 66.117 204.605 66.191C204.814 66.265 205.037 66.2938 205.258 66.2757C205.762 66.2899 206.256 66.1392 206.665 65.8465C207.146 65.4347 207.518 64.9101 207.747 64.3196C208.158 63.3645 208.492 62.3777 208.745 61.3689C209.071 60.1314 209.442 58.5735 209.859 56.695C210.276 54.8166 210.601 53.2587 210.834 52.0212C211.032 51.0483 211.143 50.0597 211.166 49.0671C211.166 48.3386 211.023 47.8296 210.76 47.5435C210.6 47.3901 210.409 47.2725 210.199 47.1985C209.99 47.1245 209.767 47.0958 209.546 47.1144C209.044 47.1009 208.551 47.2516 208.142 47.5435C207.66 47.9529 207.288 48.4768 207.061 49.0671C206.649 50.0231 206.315 51.011 206.063 52.0212C205.733 53.2587 205.361 54.8166 204.949 56.695C204.513 58.5712 204.18 60.1314 203.974 61.3689Z" fill="#D61B53"/>
<path d="M225.577 62.8727C225.278 64.2299 225.272 65.1359 225.56 65.5905C225.72 65.8238 225.939 66.0103 226.194 66.1308C226.45 66.2513 226.733 66.3013 227.014 66.2758C227.666 66.2868 228.296 66.0406 228.767 65.5905C229.26 65.1348 229.659 64.2299 229.958 62.8727L234.426 42.7334H241.701L237.639 61.0297C237.296 62.7294 236.721 64.3738 235.929 65.9165C235.308 67.1163 234.455 68.1805 233.418 69.0468C232.452 69.8278 231.319 70.3764 230.108 70.6503C228.741 70.9502 227.345 71.0942 225.946 71.0794C224.616 71.1001 223.289 70.9559 221.994 70.6503C220.967 70.4234 220.045 69.8589 219.376 69.0468C218.707 68.134 218.316 67.0467 218.252 65.9165C218.155 64.2737 218.309 62.6257 218.711 61.0297L222.773 42.7334H230.045L225.577 62.8727Z" fill="#D61B53"/>
<path d="M256.185 42.7333C257.346 42.6966 258.504 42.8829 259.595 43.2822C260.411 43.5856 261.121 44.1224 261.634 44.8257C262.11 45.5272 262.387 46.3446 262.436 47.1909C262.499 48.1891 262.415 49.1912 262.186 50.1649C261.875 51.8312 261.146 53.3913 260.067 54.6991C259.007 55.876 257.555 56.6269 255.982 56.8115V56.8913C257.685 57.0466 258.742 57.6587 259.153 58.7276C259.562 59.7988 259.562 61.2691 259.153 63.1487L258.624 65.5338L258.374 66.6682C258.288 67.0574 258.218 67.43 258.165 67.7826C258.115 68.0999 258.084 68.4198 258.071 68.7407C258.054 68.9635 258.069 69.1878 258.118 69.406C258.188 69.5624 258.258 69.7121 258.331 69.8551C258.432 70.0262 258.576 70.1674 258.75 70.2643L258.66 70.6568H250.909C250.804 70.2352 250.763 69.7999 250.789 69.3661C250.807 68.8684 250.852 68.3721 250.923 67.8791C250.996 67.3823 251.076 66.9066 251.162 66.452C251.252 65.9962 251.325 65.6237 251.392 65.3376L251.807 63.4614C251.964 62.8181 252.076 62.1644 252.14 61.5053C252.189 61.0889 252.142 60.6668 252.004 60.2712C251.891 59.9921 251.674 59.7678 251.398 59.6457C251.055 59.5166 250.69 59.4567 250.324 59.4694H248.391L245.909 70.6568H238.634L244.828 42.7333H256.185ZM250.929 54.5427C251.388 54.564 251.846 54.4938 252.277 54.3361C252.708 54.1785 253.104 53.9366 253.441 53.6246C254.097 52.9681 254.542 52.1305 254.718 51.2195C254.978 50.0452 254.921 49.2235 254.549 48.7178C254.176 48.2122 253.444 47.9727 252.346 47.9727H250.939L249.482 54.5427H250.929Z" fill="#D61B53"/>
<path d="M288.676 42.7334C291.284 42.7334 293.067 43.3654 294.025 44.6296C294.984 45.8937 295.229 47.5814 294.761 49.6927C294.597 50.428 294.352 51.1431 294.032 51.825C293.719 52.5021 293.316 53.1342 292.835 53.7045C292.358 54.2644 291.797 54.746 291.171 55.1317C290.502 55.5339 289.764 55.8111 288.996 55.95L288.976 56.0298C289.757 56.0697 290.513 56.319 291.165 56.7517C291.709 57.1379 292.145 57.6566 292.432 58.2587C292.721 58.8792 292.885 59.5507 292.914 60.2347C292.95 60.9629 292.886 61.6926 292.725 62.4036C292.475 63.5621 292.069 64.6812 291.517 65.7302C291.001 66.7217 290.308 67.6101 289.471 68.3516C288.595 69.1098 287.578 69.6875 286.477 70.0515C285.19 70.4763 283.841 70.6821 282.485 70.6602H271.508L277.702 42.7367L288.676 42.7334ZM284.292 53.6846C284.652 53.6911 285.009 53.6192 285.339 53.4739C285.669 53.3286 285.963 53.1133 286.201 52.8429C286.713 52.2876 287.067 51.6053 287.226 50.8669C287.407 50.193 287.359 49.4782 287.089 48.8344C286.827 48.2622 286.314 47.9728 285.559 47.9728H283.8L282.532 53.6846H284.292ZM281.963 65.4142C282.709 65.391 283.42 65.0923 283.959 64.5759C284.605 64.0137 285.06 63.1488 285.32 61.9745C285.564 60.8789 285.488 60.0439 285.094 59.4696C284.922 59.2002 284.683 58.9797 284.401 58.8294C284.119 58.679 283.803 58.6039 283.483 58.6113H281.451L279.921 65.4242L281.963 65.4142Z" fill="#D61B53"/>
<path d="M302.385 62.8727C302.082 64.2299 302.079 65.1348 302.369 65.5905C302.527 65.824 302.745 66.0108 303 66.1314C303.255 66.2519 303.538 66.3018 303.819 66.2758C304.472 66.287 305.103 66.0408 305.575 65.5905C306.068 65.1337 306.464 64.2277 306.763 62.8727L311.231 42.7334H318.506L314.447 61.0297C314.103 62.729 313.528 64.3732 312.738 65.9165C312.114 67.1159 311.26 68.1798 310.223 69.0469C309.258 69.8278 308.127 70.3764 306.916 70.6503C305.549 70.95 304.153 71.094 302.754 71.0794C301.423 71.0999 300.095 70.9558 298.799 70.6503C297.773 70.4225 296.853 69.8581 296.184 69.0469C295.513 68.1349 295.123 67.0471 295.06 65.9165C294.959 64.2736 295.114 62.6251 295.519 61.0297L299.577 42.7334H306.853L302.385 62.8727Z" fill="#D61B53"/>
<path d="M330.868 50.1218C331.055 49.4216 331.043 48.6827 330.831 47.9894C330.737 47.7095 330.55 47.4701 330.301 47.3105C330.053 47.1509 329.757 47.0806 329.464 47.1112C329.112 47.0963 328.762 47.1566 328.435 47.2879C328.109 47.4193 327.814 47.6188 327.571 47.873C327.114 48.3453 326.795 48.9329 326.646 49.5729C326.447 50.4877 326.58 51.2096 327.045 51.7451C327.582 52.3283 328.229 52.7997 328.948 53.1323C329.746 53.5249 330.611 53.9208 331.54 54.3266C332.451 54.7208 333.295 55.2551 334.041 55.9101C334.809 56.6006 335.377 57.4855 335.684 58.4715C336.035 59.525 336.023 60.9 335.648 62.5965C334.983 65.5661 333.652 67.7239 331.656 69.0701C329.66 70.4163 327.061 71.0816 323.858 71.0661C322.545 71.0915 321.234 70.9732 319.946 70.7135C318.959 70.5319 318.039 70.0858 317.285 69.4227C316.609 68.7804 316.158 67.9368 316.001 67.0176C315.811 65.7923 315.876 64.541 316.191 63.3417L316.407 62.3637H323.446L323.3 63.029C323.033 64.231 323.068 65.0726 323.403 65.5539C323.58 65.7966 323.816 65.9903 324.089 66.1166C324.362 66.2428 324.663 66.2976 324.963 66.2758C325.319 66.2837 325.672 66.2184 326.002 66.0839C326.332 65.9494 326.63 65.7486 326.879 65.494C327.4 64.9676 327.758 64.3024 327.91 63.5779C328.11 62.6664 327.99 61.9423 327.551 61.4056C327.049 60.829 326.433 60.3633 325.741 60.0384C324.976 59.6625 324.145 59.2766 323.24 58.884C322.358 58.5082 321.541 57.9939 320.821 57.3605C320.087 56.6947 319.545 55.8431 319.254 54.8954C318.922 53.8775 318.937 52.5469 319.301 50.9035C319.929 48.0626 321.164 45.8981 323.007 44.41C324.85 42.9219 327.309 42.1789 330.385 42.1812C333.565 42.1812 335.714 42.8664 336.832 44.237C337.95 45.6076 338.172 47.7909 337.497 50.7871H330.721L330.868 50.1218Z" fill="#D61B53"/>
<path d="M349.636 42.7334L343.442 70.6569H336.167L342.361 42.7334H349.636Z" fill="#D61B53"/>
<path d="M360.937 42.7334L361.812 59.9419H361.892L365.707 42.7334H372.507L366.313 70.6569H358.329L357.304 53.4085H357.228L353.402 70.6569H346.609L352.803 42.7334H360.937Z" fill="#D61B53"/>
<path d="M392.496 42.7334L391.166 48.678H381.898L380.85 53.4484H389.532L388.268 59.1568H379.586L378.352 64.7123H387.972L386.642 70.6569H369.746L375.94 42.7334H392.496Z" fill="#D61B53"/>
<path d="M404.741 50.1219C404.929 49.4218 404.917 48.6829 404.705 47.9896C404.61 47.7091 404.423 47.4692 404.174 47.3096C403.925 47.1499 403.629 47.08 403.334 47.1114C402.983 47.0968 402.633 47.1572 402.307 47.2885C401.982 47.4199 401.688 47.6192 401.445 47.8732C400.988 48.3454 400.668 48.9331 400.52 49.5731C400.317 50.4879 400.45 51.2097 400.919 51.7453C401.456 52.3285 402.103 52.7999 402.822 53.1325C403.62 53.5251 404.485 53.9209 405.41 54.3268C406.323 54.7201 407.168 55.2545 407.915 55.9102C408.682 56.601 409.249 57.4859 409.555 58.4717C409.908 59.5252 409.897 60.9001 409.522 62.5967C408.856 65.5663 407.526 67.7241 405.53 69.0703C403.534 70.4165 400.935 71.0818 397.732 71.0663C396.413 71.0861 395.096 70.9611 393.804 70.6937C392.816 70.512 391.896 70.0659 391.142 69.403C390.465 68.7611 390.013 67.9174 389.855 66.9978C389.668 65.7723 389.733 64.5217 390.045 63.3219L390.264 62.3439H397.303L397.153 63.0092C396.887 64.2112 396.923 65.0529 397.26 65.5341C397.437 65.7773 397.673 65.9713 397.946 66.0976C398.219 66.224 398.52 66.2785 398.82 66.256C399.176 66.2638 399.529 66.1985 399.858 66.064C400.187 65.9295 400.485 65.7288 400.733 65.4742C401.256 64.9496 401.614 64.2836 401.764 63.5581C401.968 62.6466 401.848 61.9225 401.405 61.3858C400.905 60.8092 400.289 60.3435 399.599 60.0186C398.833 59.6427 398.002 59.2568 397.097 58.8643C396.215 58.4884 395.398 57.9741 394.679 57.3407C393.944 56.675 393.403 55.8233 393.112 54.8757C392.775 53.8577 392.789 52.5271 393.155 50.8837C393.787 48.0428 395.023 45.8783 396.864 44.3902C398.705 42.9021 401.164 42.1592 404.242 42.1614C407.423 42.1614 409.572 42.8467 410.689 44.2172C411.807 45.5878 412.029 47.7711 411.355 50.7673H404.549L404.741 50.1219Z" fill="#D61B53"/>
<path d="M425.732 50.1218C425.921 49.4219 425.91 48.6831 425.699 47.9895C425.605 47.709 425.417 47.4691 425.168 47.3095C424.919 47.1498 424.623 47.0799 424.329 47.1113C423.978 47.0967 423.627 47.1571 423.302 47.2884C422.976 47.4198 422.682 47.6191 422.439 47.873C421.981 48.3444 421.661 48.9324 421.514 49.5729C421.311 50.4878 421.444 51.2096 421.913 51.7452C422.449 52.3283 423.094 52.7998 423.813 53.1324C424.615 53.5249 425.476 53.9208 426.404 54.3267C427.317 54.72 428.162 55.2543 428.909 55.9101C429.676 56.6009 430.243 57.4858 430.549 58.4716C430.902 59.525 430.89 60.9 430.513 62.5966C429.847 65.5661 428.517 67.724 426.521 69.0702C424.525 70.4163 421.933 71.0861 418.746 71.0794C417.428 71.0991 416.112 70.9742 414.821 70.7069C413.834 70.5252 412.914 70.0791 412.16 69.4161C411.482 68.7743 411.031 67.9306 410.872 67.011C410.686 65.7855 410.75 64.5349 411.062 63.3351L411.278 62.3571H418.321L418.171 63.0224C417.905 64.2244 417.94 65.066 418.277 65.5473C418.454 65.7905 418.691 65.9845 418.964 66.1108C419.237 66.2372 419.538 66.2917 419.838 66.2692C420.193 66.277 420.546 66.2117 420.875 66.0772C421.204 65.9427 421.502 65.742 421.75 65.4874C422.272 64.9619 422.63 64.2963 422.782 63.5713C422.983 62.6598 422.864 61.9357 422.422 61.399C421.922 60.8224 421.307 60.3567 420.616 60.0318C419.851 59.657 419.017 59.2722 418.114 58.8775C417.232 58.5025 416.415 57.988 415.696 57.3539C414.961 56.6881 414.42 55.8365 414.129 54.8889C413.792 53.8709 413.806 52.5403 414.172 50.8969C414.804 48.056 416.041 45.8915 417.882 44.4034C419.722 42.9153 422.182 42.1723 425.26 42.1746C428.44 42.1746 430.589 42.8599 431.707 44.2304C432.825 45.601 433.046 47.7843 432.372 50.7805H425.566L425.732 50.1218Z" fill="#D61B53"/>
<path d="M185.708 6.62953L152.149 5.21239C150.107 5.21239 150.655 2.18851 152.725 2.04214L187.012 0.625L185.708 6.62953Z" fill="#D61B53"/>
<path d="M184.244 13.4759L167.588 12.3715C165.685 12.2684 165.05 10.1027 167.874 9.89317L185.272 8.7854L184.244 13.4759Z" fill="#D61B53"/>
<path d="M179.896 48.7346L156.497 47.3208C155.203 47.3208 153.051 44.9922 156.863 44.1472L178.625 42.7334L179.896 48.7346Z" fill="#D61B53"/>
<path d="M181.021 64.0171L170.748 63.0956C169.281 62.9825 169.215 61.0564 170.911 60.9433L181.733 59.9819L181.021 64.0171Z" fill="#D61B53"/>
<path d="M329.295 259.472C329.295 261.102 318.743 262.592 301.298 263.737C298.127 263.943 294.725 264.139 291.122 264.324C288.006 264.483 284.741 264.632 281.326 264.772C278.017 264.907 274.582 265.031 271.02 265.145C259.769 265.509 247.332 265.769 234.12 265.9C230.916 265.931 227.667 265.956 224.373 265.973C220.944 265.992 217.476 266.001 213.97 266C150.277 266 98.6434 263.078 98.6434 259.472C98.6434 255.867 150.277 252.944 213.97 252.944C228.054 252.944 241.548 253.088 254.024 253.35H254.056C265.856 253.598 276.746 253.952 286.365 254.391C287.094 254.424 287.815 254.457 288.529 254.489C288.533 254.492 288.538 254.494 288.544 254.493C292.95 254.705 297.072 254.934 300.871 255.18C300.913 255.182 300.955 255.186 300.997 255.188C318.623 256.335 329.295 257.832 329.295 259.472Z" fill="#646088"/>
<path d="M11.0301 33.3651H94.6128C98.6461 33.3651 102.559 34.7438 105.709 37.2746C108.859 39.8054 111.059 43.3377 111.946 47.2909L154.178 235.501C154.639 237.554 154.647 239.683 154.202 241.74C153.757 243.796 152.87 245.73 151.602 247.405C150.335 249.081 148.718 250.457 146.865 251.438C145.012 252.42 142.968 252.982 140.876 253.085L54.9527 257.339C50.3518 257.566 45.8255 256.105 42.2186 253.226C38.6116 250.347 36.1704 246.248 35.3505 241.693L11.3935 108.627L9.61124 109.138L5.0273 83.9171L6.86192 83.4562L0.174698 46.3125C-0.111729 44.7216 -0.0453042 43.0868 0.369236 41.5246C0.783775 39.9624 1.53622 38.5113 2.57293 37.2748C3.60965 36.0383 4.9051 35.0468 6.36693 34.371C7.82877 33.6952 9.42099 33.3518 11.0301 33.3651V33.3651Z" fill="#3F3D56"/>
<path d="M83.6092 37.4224H93.3658C96.1677 37.4224 98.8854 38.3852 101.068 40.1509C103.25 41.9166 104.765 44.3791 105.363 47.1296L145.9 233.804C146.134 234.879 146.133 235.992 145.9 237.067C145.666 238.141 145.204 239.153 144.545 240.031C143.887 240.91 143.047 241.636 142.084 242.159C141.121 242.682 140.057 242.99 138.964 243.062L53.3185 248.702C50.9023 248.861 48.5124 248.121 46.6048 246.622C44.6972 245.124 43.4056 242.972 42.9763 240.578L8.38535 47.631C8.16146 46.3822 8.2131 45.0992 8.53661 43.8726C8.86012 42.646 9.44763 41.5057 10.2577 40.5322C11.0677 39.5586 12.0805 38.7755 13.2247 38.2382C14.3688 37.7009 15.6164 37.4224 16.8793 37.4224H26.135C27.0309 37.4224 27.9017 37.7191 28.6127 38.2666C29.3237 38.8141 29.8353 39.5818 30.0682 40.4509V40.4509C30.2738 41.2182 30.7254 41.8959 31.3531 42.3793C31.9808 42.8626 32.7496 43.1245 33.5405 43.1245H77.4805C79.0291 43.1245 80.5206 42.5372 81.6569 41.4801C82.7932 40.4229 83.4904 38.9737 83.6092 37.4224L83.6092 37.4224Z" fill="white"/>
<path d="M15.0493 69.1621H107.963L117.861 113.973L23.7336 115.718L15.0493 69.1621Z" fill="#D61B53"/>
<path d="M103.281 154.023H125.156L125.85 158.231H103.976L103.281 154.023Z" fill="#D61B53"/>
<path d="M121.079 132.56L28.3085 134.534L28.3178 134.973L121.088 132.999L121.079 132.56Z" fill="#2F2E41"/>
<path d="M123.916 145.5L29.3995 147.693L29.4096 148.132L123.926 145.938L123.916 145.5Z" fill="#2F2E41"/>
<path d="M112.313 199.046H134.187L134.882 203.253H113.008L112.313 199.046Z" fill="#D61B53"/>
<path d="M130.11 177.583L37.34 179.557L37.3493 179.995L130.12 178.021L130.11 177.583Z" fill="#2F2E41"/>
<path d="M132.948 190.522L38.4312 192.715L38.4413 193.154L132.958 190.961L132.948 190.522Z" fill="#2F2E41"/>
<path d="M179.989 257.292L177.021 257.292L175.609 245.79L179.989 245.79L179.989 257.292Z" fill="#A0616A"/>
<path d="M180.746 260.183L171.175 260.183V260.061C171.175 259.068 171.568 258.116 172.267 257.415C172.965 256.713 173.913 256.318 174.9 256.318H174.901L180.746 256.319L180.746 260.183Z" fill="#2F2E41"/>
<path d="M216.86 255.34L213.971 256.024L209.972 245.153L214.236 244.144L216.86 255.34Z" fill="#A0616A"/>
<path d="M218.256 257.979L208.941 260.183L208.913 260.065C208.687 259.099 208.852 258.082 209.371 257.238C209.891 256.394 210.723 255.791 211.685 255.564L211.685 255.564L217.375 254.218L218.256 257.979Z" fill="#2F2E41"/>
<path d="M179.382 208.777C179.388 208.178 179.564 194.032 183.424 188.683L183.481 188.604L196.931 190.469L196.63 193.438C197.221 194.016 201.875 198.901 203.218 210.47L217.494 248.992L210.857 249.598L191.212 207.547L180.815 253.257H174.236L179.382 208.777Z" fill="#2F2E41"/>
<path d="M181.848 189.205L183.163 182.271C182.906 181.938 181.765 180.339 182.019 178.465C182.185 177.243 182.911 176.171 184.178 175.278L187.586 167.289L187.632 167.262C187.861 167.126 193.287 163.974 196.245 166.948C196.319 167.006 203.602 172.814 200.677 180.65L197.067 191.534L181.848 189.205Z" fill="#CCCCCC"/>
<path d="M177.274 198.588C177.629 198.547 177.97 198.429 178.274 198.241C178.578 198.053 178.838 197.801 179.034 197.502C179.231 197.203 179.359 196.864 179.412 196.509C179.464 196.154 179.438 195.793 179.335 195.449L186.373 190.355L182.16 188.745L176.123 193.829C175.56 194.04 175.094 194.451 174.812 194.984C174.53 195.517 174.453 196.136 174.595 196.722C174.737 197.309 175.088 197.822 175.582 198.166C176.076 198.51 176.678 198.66 177.274 198.588Z" fill="#A0616A"/>
<path d="M178.568 190.347L189.311 181.842L186.117 170.878C185.967 170.359 185.924 169.814 185.992 169.277C186.06 168.741 186.238 168.224 186.513 167.76C186.768 167.322 187.111 166.942 187.521 166.645C187.93 166.348 188.397 166.141 188.891 166.035C190.73 165.644 192.4 166.679 193.853 169.111L193.864 169.133C194.104 169.723 199.701 183.625 195.427 186.597C191.247 189.505 181.552 193.739 181.455 193.781L181.341 193.831L178.568 190.347Z" fill="#CCCCCC"/>
<path d="M192.847 164.057C196.441 164.057 199.355 161.13 199.355 157.518C199.355 153.907 196.441 150.979 192.847 150.979C189.252 150.979 186.338 153.907 186.338 157.518C186.338 161.13 189.252 164.057 192.847 164.057Z" fill="#A0616A"/>
<path d="M203.05 155.183C206.23 155.183 208.808 152.593 208.808 149.398C208.808 146.203 206.23 143.613 203.05 143.613C199.87 143.613 197.292 146.203 197.292 149.398C197.292 152.593 199.87 155.183 203.05 155.183Z" fill="#2F2E41"/>
<path d="M208.017 154.189C207.272 154.73 206.408 155.084 205.499 155.221C204.589 155.358 203.661 155.275 202.79 154.977C201.92 154.68 201.132 154.177 200.495 153.511C199.857 152.846 199.388 152.036 199.125 151.151C199.224 151.944 199.486 152.709 199.895 153.395C200.303 154.082 200.848 154.676 201.496 155.14C202.144 155.604 202.881 155.929 203.66 156.092C204.44 156.256 205.244 156.255 206.023 156.091C206.802 155.926 207.538 155.601 208.186 155.136C208.834 154.671 209.378 154.077 209.786 153.389C210.193 152.702 210.454 151.938 210.552 151.144C210.651 150.351 210.584 149.545 210.357 148.779C210.486 149.808 210.337 150.854 209.925 151.806C209.513 152.758 208.854 153.581 208.017 154.189V154.189Z" fill="#2F2E41"/>
<path d="M185.294 154.195C186.299 152.387 186.684 151.632 187.98 150.532C189.126 149.56 190.536 149.274 191.673 150.196C193.018 149.612 194.514 149.479 195.94 149.818C197.366 150.157 198.646 150.949 199.588 152.076C200.53 153.204 201.086 154.606 201.171 156.076C201.257 157.546 200.869 159.004 200.064 160.234C199.259 161.465 198.08 162.401 196.704 162.905C195.327 163.409 193.825 163.453 192.421 163.031C191.017 162.609 189.786 161.743 188.911 160.562C188.036 159.381 187.564 157.948 187.564 156.476C187.565 156.217 187.58 155.959 187.61 155.702C186.622 155.563 186.282 154.335 185.294 154.195Z" fill="#2F2E41"/>
<g clip-path="url(#clip0)">
<path d="M394.574 136.639H394.574C397.692 136.639 400.78 137.253 403.662 138.446C406.543 139.64 409.161 141.388 411.366 143.593C413.571 145.798 415.32 148.415 416.514 151.296C417.707 154.176 418.321 157.264 418.321 160.382V217.266H370.826V160.382C370.826 157.264 371.441 154.176 372.634 151.296C373.827 148.415 375.577 145.798 377.782 143.593C379.987 141.388 382.605 139.64 385.486 138.446C388.367 137.253 391.455 136.639 394.574 136.639V136.639Z" fill="#E6E6E6"/>
<path d="M386.335 165.184H382.07V179.333H386.335V165.184Z" fill="white"/>
<path d="M401.65 180.496H387.498V193.287H401.65V180.496Z" fill="white"/>
<path d="M401.65 165.184H387.498V179.333H401.65V165.184Z" fill="white"/>
<path d="M402.813 164.021H407.078V163.73C407.079 161.95 406.699 160.19 405.964 158.569C405.228 156.947 404.154 155.502 402.813 154.331V164.021Z" fill="white"/>
<path d="M387.498 164.021H401.65V153.425C399.569 151.991 397.101 151.226 394.574 151.229C392.047 151.226 389.579 151.991 387.498 153.425V164.021Z" fill="white"/>
<path d="M386.335 180.496H382.07V190.186C382.07 191.009 382.397 191.797 382.979 192.379C383.56 192.961 384.349 193.287 385.172 193.287H386.335V180.496Z" fill="white"/>
<path d="M402.813 180.496V193.287H403.976C404.799 193.287 405.587 192.961 406.169 192.379C406.751 191.797 407.078 191.009 407.078 190.186V180.496H402.813Z" fill="white"/>
<path d="M386.335 164.021V154.331C384.994 155.502 383.92 156.947 383.184 158.569C382.448 160.19 382.069 161.95 382.07 163.73V164.021H386.335Z" fill="white"/>
<path d="M407.078 165.184H402.813V179.333H407.078V165.184Z" fill="white"/>
<path d="M414.929 183.984C416.321 183.984 417.449 182.856 417.449 181.464C417.449 180.073 416.321 178.945 414.929 178.945C413.537 178.945 412.409 180.073 412.409 181.464C412.409 182.856 413.537 183.984 414.929 183.984Z" fill="#3F3D56"/>
<path d="M335.478 157.283H332.131V168.388H335.478V157.283Z" fill="#F2F2F2"/>
<path d="M347.498 157.283H336.391V168.388H347.498V157.283Z" fill="#F2F2F2"/>
<path d="M351.759 157.283H348.411V168.388H351.759V157.283Z" fill="#F2F2F2"/>
<path d="M348.411 156.37H351.759V156.142C351.76 154.745 351.462 153.363 350.884 152.091C350.307 150.818 349.464 149.684 348.411 148.765V156.37Z" fill="#F2F2F2"/>
<path d="M347.498 169.3H336.391V179.34H347.498V169.3Z" fill="#F2F2F2"/>
<path d="M335.478 169.3H332.131V176.906C332.131 177.552 332.387 178.171 332.844 178.627C333.3 179.084 333.919 179.34 334.565 179.34H335.478L335.478 169.3Z" fill="#F2F2F2"/>
<path d="M348.411 169.3V179.34H349.324C349.644 179.34 349.96 179.277 350.256 179.155C350.551 179.033 350.819 178.853 351.045 178.627C351.272 178.401 351.451 178.133 351.573 177.838C351.696 177.542 351.759 177.226 351.759 176.906V169.3H348.411Z" fill="#F2F2F2"/>
<path d="M335.478 156.37V148.765C334.426 149.684 333.582 150.818 333.005 152.091C332.428 153.363 332.13 154.745 332.131 156.142V156.37H335.478Z" fill="#F2F2F2"/>
<path d="M336.391 156.37H347.498V148.053C345.865 146.928 343.928 146.327 341.945 146.33C339.961 146.327 338.024 146.928 336.391 148.053V156.37Z" fill="#F2F2F2"/>
<path d="M356.13 180.554H327.83C327.648 180.553 327.474 180.481 327.346 180.353C327.217 180.225 327.145 180.051 327.145 179.869V178.044C327.145 177.862 327.217 177.688 327.346 177.56C327.474 177.432 327.648 177.359 327.83 177.359H356.13C356.312 177.359 356.486 177.432 356.614 177.56C356.742 177.688 356.815 177.862 356.815 178.044V179.869C356.815 180.051 356.742 180.225 356.614 180.353C356.486 180.481 356.312 180.553 356.13 180.554V180.554Z" fill="#E6E6E6"/>
<path d="M440.742 157.283H437.395V168.388H440.742V157.283Z" fill="#F2F2F2"/>
<path d="M452.762 157.283H441.655V168.388H452.762V157.283Z" fill="#F2F2F2"/>
<path d="M457.023 157.283H453.675V168.388H457.023V157.283Z" fill="#F2F2F2"/>
<path d="M453.675 156.37H457.023V156.142C457.024 154.745 456.726 153.363 456.148 152.091C455.571 150.818 454.728 149.684 453.675 148.765V156.37Z" fill="#F2F2F2"/>
<path d="M452.762 169.3H441.655V179.34H452.762V169.3Z" fill="#F2F2F2"/>
<path d="M440.742 169.3H437.395V176.906C437.395 177.552 437.651 178.171 438.108 178.627C438.564 179.084 439.184 179.34 439.829 179.34H440.742L440.742 169.3Z" fill="#F2F2F2"/>
<path d="M453.675 169.3V179.34H454.588C454.908 179.34 455.225 179.277 455.52 179.155C455.815 179.033 456.084 178.853 456.31 178.627C456.536 178.401 456.715 178.133 456.837 177.838C456.96 177.542 457.023 177.226 457.023 176.906V169.3H453.675Z" fill="#F2F2F2"/>
<path d="M440.742 156.37V148.765C439.69 149.684 438.847 150.818 438.269 152.091C437.692 153.363 437.394 154.745 437.395 156.142V156.37H440.742Z" fill="#F2F2F2"/>
<path d="M441.655 156.37H452.762V148.053C451.129 146.928 449.192 146.327 447.209 146.33V146.33C445.226 146.327 443.289 146.928 441.655 148.053V156.37Z" fill="#F2F2F2"/>
<path d="M461.394 180.554H433.094C432.912 180.553 432.738 180.481 432.61 180.353C432.482 180.225 432.409 180.051 432.409 179.869V178.044C432.409 177.862 432.482 177.688 432.61 177.56C432.738 177.432 432.912 177.359 433.094 177.359H461.394C461.576 177.359 461.75 177.432 461.878 177.56C462.007 177.688 462.079 177.862 462.079 178.044V179.869C462.079 180.051 462.007 180.225 461.878 180.353C461.75 180.481 461.576 180.553 461.394 180.554Z" fill="#E6E6E6"/>
<path d="M469.79 217.46H319.357C317.661 217.458 316.035 216.784 314.836 215.585C313.637 214.386 312.962 212.76 312.96 211.064V113.575C312.962 111.879 313.637 110.254 314.836 109.055C316.035 107.856 317.661 107.181 319.357 107.179H469.79C471.486 107.181 473.112 107.856 474.312 109.055C475.511 110.254 476.186 111.879 476.188 113.575V211.064C476.186 212.76 475.511 214.386 474.312 215.585C473.112 216.784 471.486 217.458 469.79 217.46ZM319.357 107.567C317.764 107.569 316.237 108.202 315.11 109.329C313.983 110.455 313.35 111.982 313.348 113.575V211.064C313.35 212.657 313.983 214.184 315.11 215.311C316.237 216.437 317.764 217.071 319.357 217.073H469.79C471.384 217.071 472.911 216.437 474.038 215.311C475.164 214.184 475.798 212.657 475.8 211.064V113.575C475.798 111.982 475.164 110.455 474.038 109.329C472.911 108.202 471.384 107.569 469.79 107.567H319.357Z" fill="#CCCCCC"/>
<path d="M315.393 119.926C313.782 119.925 312.231 119.318 311.048 118.226C309.865 117.134 309.136 115.636 309.007 114.031C308.878 112.426 309.357 110.832 310.35 109.564C311.343 108.296 312.777 107.449 314.366 107.19L392.985 81.3634C394.007 81.1946 395.049 81.1933 396.071 81.3597L474.795 107.194C476.472 107.47 477.97 108.401 478.96 109.781C479.951 111.161 480.353 112.878 480.078 114.554C479.803 116.23 478.874 117.729 477.494 118.721C476.115 119.712 474.398 120.116 472.721 119.843C471.873 119.722 395.271 108.786 394.572 108.757C393.876 108.786 317.2 119.732 316.426 119.843C316.084 119.898 315.739 119.926 315.393 119.926V119.926Z" fill="#CCCCCC"/>
<path d="M428.292 202.061C428.455 201.851 428.569 201.607 428.627 201.348C428.684 201.089 428.685 200.82 428.627 200.561C428.57 200.301 428.457 200.057 428.295 199.846C428.133 199.636 427.927 199.463 427.692 199.34L428.051 195.203L425.589 194.371L425.164 200.221C424.984 200.631 424.961 201.092 425.098 201.518C425.236 201.943 425.525 202.304 425.911 202.531C426.296 202.757 426.752 202.835 427.191 202.748C427.63 202.662 428.022 202.418 428.292 202.061V202.061Z" fill="#FFB8B8"/>
<path d="M440.577 234.23L438.36 234.23L437.307 225.684L440.578 225.684L440.577 234.23Z" fill="#A0616A"/>
<path d="M436.777 233.597H441.052V236.287H434.086C434.086 235.934 434.156 235.584 434.291 235.258C434.426 234.931 434.625 234.635 434.875 234.385C435.124 234.135 435.421 233.937 435.748 233.801C436.074 233.666 436.424 233.597 436.777 233.597Z" fill="#2F2E41"/>
<path d="M435.546 228.559L433.394 229.088L430.33 221.04L433.506 220.26L435.546 228.559Z" fill="#A0616A"/>
<path d="M431.706 228.851L435.856 227.831L436.498 230.444L429.734 232.105C429.65 231.762 429.634 231.406 429.688 231.057C429.741 230.707 429.863 230.372 430.046 230.07C430.229 229.768 430.47 229.504 430.754 229.295C431.039 229.086 431.362 228.935 431.706 228.851V228.851Z" fill="#2F2E41"/>
<path d="M437.983 231.506C437.781 231.506 437.585 231.431 437.435 231.296C437.285 231.161 437.19 230.974 437.169 230.773L434.619 207.02L432.4 214.284L435.543 225.628C435.597 225.823 435.577 226.03 435.488 226.211C435.398 226.392 435.245 226.534 435.057 226.608L432.559 227.608C432.456 227.649 432.346 227.669 432.235 227.666C432.124 227.663 432.015 227.638 431.914 227.593C431.813 227.547 431.723 227.481 431.648 227.399C431.573 227.317 431.516 227.221 431.48 227.116L427.628 216.067C427.206 214.861 427.019 213.585 427.078 212.308L427.616 200.384L441.776 200.983L441.554 230.485C441.552 230.69 441.473 230.887 441.332 231.037C441.192 231.187 441.001 231.28 440.796 231.296L438.046 231.503C438.025 231.505 438.004 231.506 437.983 231.506Z" fill="#2F2E41"/>
<path d="M435.638 173.994C438.268 173.994 440.399 171.863 440.399 169.234C440.399 166.605 438.268 164.474 435.638 164.474C433.008 164.474 430.877 166.605 430.877 169.234C430.877 171.863 433.008 173.994 435.638 173.994Z" fill="#A0616A"/>
<path d="M439.139 201.759C437.885 201.759 436.328 201.656 434.716 201.55C432.514 201.405 430.237 201.255 428.537 201.354C428.307 201.376 428.076 201.34 427.864 201.248C427.653 201.156 427.468 201.011 427.329 200.828C425.576 198.585 428.279 189.837 428.395 189.466L430.595 179.684L430.689 179.705L430.595 179.684C431.079 177.533 432.625 175.946 434.63 175.543C436.506 175.166 438.321 175.917 439.485 177.553C439.547 177.64 439.609 177.729 439.67 177.821C443.461 183.433 441.317 197.376 441.173 198.276C441.373 198.516 442.456 199.871 442.158 200.813C442.037 201.196 441.709 201.457 441.181 201.589C440.509 201.722 439.824 201.779 439.139 201.759V201.759Z" fill="#CCCCCC"/>
<path d="M428.614 201.763C428.182 201.763 427.601 201.604 426.816 201.278C426.479 201.137 425.453 200.711 426.698 189.828C427.31 184.483 428.187 179.175 428.195 179.122L428.204 179.071L428.251 179.049C428.274 179.039 430.512 178.013 430.901 176.695C430.915 176.65 430.93 176.605 430.946 176.563C431.053 176.27 431.27 176.029 431.55 175.892C431.83 175.754 432.152 175.73 432.449 175.825C432.764 175.9 433.038 176.091 433.215 176.361C433.393 176.63 433.462 176.958 433.408 177.276C433.272 178.136 433.011 178.971 432.634 179.755C431.581 181.928 430.867 187.688 430.86 187.745C430.82 188.237 429.864 199.892 429.68 200.777C429.616 201.086 429.497 201.464 429.15 201.647C428.983 201.729 428.799 201.769 428.614 201.763Z" fill="#2F2E41"/>
<path d="M433.815 201.316C433.728 201.316 433.644 201.287 433.575 201.234C432.174 200.17 434.441 187.269 435.786 182.818C436.055 181.927 436.295 181.164 436.498 180.55C436.87 179.447 437.129 178.311 437.272 177.157C437.346 176.531 437.507 176.174 437.764 176.065C437.942 175.989 438.152 176.04 438.388 176.219C439.63 176.158 440.836 176.665 441.955 177.223L442.962 177.725L444.091 197.717C444.059 198.993 441.544 199.893 440.446 199.951C438.684 200.043 435.52 200.33 434.126 201.212C434.034 201.276 433.927 201.312 433.815 201.316V201.316Z" fill="#2F2E41"/>
<path d="M427.523 197.566C427.506 197.566 427.49 197.565 427.473 197.564L425.192 197.424C425.078 197.417 424.967 197.386 424.866 197.334C424.765 197.282 424.676 197.209 424.604 197.121C424.533 197.032 424.48 196.93 424.451 196.82C424.421 196.71 424.414 196.596 424.431 196.483L425.463 189.646L427.407 180.052C427.455 179.816 427.552 179.592 427.692 179.396C427.831 179.199 428.011 179.035 428.219 178.912C428.426 178.789 428.657 178.712 428.897 178.684C429.137 178.657 429.379 178.68 429.609 178.752V178.752C430.003 178.877 430.338 179.139 430.555 179.49C430.772 179.842 430.857 180.259 430.793 180.667L429.249 190.279L428.335 196.859C428.307 197.054 428.21 197.233 428.061 197.363C427.912 197.493 427.721 197.565 427.523 197.566V197.566Z" fill="#2F2E41"/>
<path d="M436.508 173.878C437.224 173.893 437.936 173.757 438.596 173.478C439.256 173.198 439.85 172.783 440.338 172.258C440.826 171.733 441.197 171.111 441.428 170.432C441.658 169.754 441.742 169.034 441.675 168.321C441.607 167.607 441.389 166.916 441.036 166.293C440.682 165.67 440.2 165.128 439.622 164.705C439.044 164.281 438.383 163.984 437.682 163.834C436.981 163.684 436.257 163.683 435.556 163.833C434.509 163.197 433.291 162.77 432.071 162.878C430.851 162.987 429.645 163.711 429.188 164.848C428.732 165.985 429.222 167.483 430.357 167.945C431.084 168.241 431.905 168.097 432.681 167.978C433.458 167.858 434.304 167.78 434.98 168.181C435.655 168.581 435.959 169.655 435.354 170.156C435.033 170.431 434.804 170.798 434.698 171.208C434.591 171.617 434.611 172.049 434.756 172.446C435.06 173.233 435.89 173.864 436.508 173.878Z" fill="#2F2E41"/>
<path d="M425.953 174.302C424.713 174.303 423.523 174.796 422.646 175.674C421.768 176.551 421.276 177.741 421.276 178.982C421.276 180.222 421.768 181.412 422.646 182.29C423.523 183.167 424.713 183.661 425.953 183.662H425.953C427.194 183.661 428.384 183.167 429.261 182.29C430.139 181.412 430.631 180.222 430.631 178.982C430.631 177.741 430.139 176.551 429.261 175.674C428.384 174.796 427.194 174.303 425.953 174.302V174.302Z" fill="#D61B53"/>
<path d="M425.509 180.926C425.386 180.926 425.266 180.886 425.168 180.812L425.161 180.807L423.874 179.823C423.815 179.777 423.765 179.72 423.727 179.655C423.689 179.59 423.665 179.518 423.655 179.444C423.645 179.369 423.65 179.294 423.67 179.221C423.689 179.149 423.723 179.081 423.768 179.021C423.814 178.961 423.871 178.911 423.936 178.874C424.001 178.836 424.073 178.812 424.147 178.802C424.222 178.792 424.298 178.797 424.37 178.817C424.443 178.836 424.511 178.869 424.57 178.915L425.404 179.554L427.374 176.985C427.42 176.925 427.477 176.875 427.542 176.837C427.607 176.8 427.679 176.775 427.753 176.766C427.828 176.756 427.903 176.761 427.976 176.78C428.048 176.8 428.116 176.833 428.176 176.879L428.176 176.879L428.164 176.896L428.176 176.879C428.297 176.971 428.375 177.108 428.395 177.258C428.415 177.408 428.374 177.56 428.282 177.681L425.965 180.702C425.911 180.771 425.842 180.828 425.763 180.866C425.684 180.905 425.598 180.925 425.51 180.925L425.509 180.926Z" fill="white"/>
<path d="M435.814 187.279H419.385C419.167 187.279 418.951 187.322 418.749 187.405C418.547 187.489 418.363 187.611 418.209 187.766C418.054 187.92 417.932 188.104 417.848 188.305C417.765 188.507 417.722 188.724 417.722 188.942V205.367C417.722 205.585 417.765 205.802 417.848 206.003C417.932 206.205 418.054 206.389 418.209 206.543C418.363 206.698 418.547 206.82 418.749 206.904C418.951 206.987 419.167 207.03 419.385 207.03H435.814C436.032 207.03 436.249 206.987 436.45 206.904C436.652 206.82 436.836 206.698 436.99 206.543C437.145 206.389 437.267 206.205 437.351 206.003C437.434 205.802 437.477 205.585 437.477 205.367V188.942C437.477 188.724 437.434 188.507 437.351 188.305C437.267 188.104 437.145 187.92 436.99 187.766C436.836 187.611 436.652 187.489 436.45 187.405C436.249 187.322 436.032 187.279 435.814 187.279V187.279Z" fill="#D61B53"/>
<path d="M432.114 199.561L424.357 201.071C423.897 201.16 423.421 201.063 423.032 200.801C422.643 200.539 422.374 200.134 422.284 199.674L421.688 196.613C421.599 196.153 421.696 195.676 421.958 195.288C422.22 194.899 422.625 194.631 423.085 194.54L430.842 193.03C431.302 192.941 431.779 193.038 432.167 193.3C432.556 193.562 432.825 193.967 432.915 194.427L433.511 197.488C433.6 197.948 433.503 198.425 433.241 198.813C432.979 199.202 432.574 199.471 432.114 199.561V199.561Z" fill="white"/>
<path d="M430.562 195.944L424.643 197.097C424.534 197.118 424.422 197.095 424.331 197.033C424.239 196.972 424.176 196.876 424.155 196.768C424.134 196.66 424.157 196.548 424.218 196.456C424.28 196.365 424.375 196.301 424.484 196.28L430.403 195.128C430.457 195.117 430.512 195.118 430.565 195.128C430.619 195.139 430.67 195.161 430.715 195.191C430.761 195.222 430.799 195.261 430.83 195.306C430.86 195.352 430.881 195.403 430.891 195.456C430.902 195.51 430.901 195.565 430.89 195.619C430.88 195.672 430.858 195.723 430.828 195.768C430.797 195.814 430.758 195.853 430.712 195.883C430.667 195.913 430.616 195.934 430.562 195.944V195.944Z" fill="#D61B53"/>
<path d="M429.411 197.651L426.35 198.247C426.296 198.258 426.241 198.257 426.187 198.247C426.134 198.236 426.083 198.214 426.038 198.184C425.992 198.153 425.954 198.114 425.923 198.069C425.893 198.023 425.872 197.972 425.862 197.919C425.851 197.865 425.852 197.81 425.863 197.756C425.873 197.703 425.895 197.652 425.925 197.607C425.956 197.561 425.995 197.523 426.04 197.492C426.086 197.462 426.137 197.441 426.191 197.431L429.252 196.835C429.361 196.814 429.473 196.837 429.564 196.898C429.656 196.96 429.719 197.055 429.74 197.163C429.761 197.272 429.738 197.384 429.677 197.475C429.615 197.567 429.52 197.63 429.411 197.651H429.411Z" fill="#D61B53"/>
<path d="M437.477 188.942V191.125H417.722V188.942C417.722 188.724 417.765 188.507 417.848 188.305C417.932 188.104 418.054 187.92 418.209 187.766C418.363 187.611 418.547 187.489 418.749 187.405C418.951 187.322 419.167 187.279 419.385 187.279H435.814C436.032 187.279 436.249 187.322 436.45 187.405C436.652 187.489 436.836 187.611 436.99 187.766C437.145 187.92 437.267 188.104 437.351 188.306C437.434 188.507 437.477 188.724 437.477 188.942V188.942Z" fill="#3F3D56"/>
<path d="M435.316 190.081C435.456 189.855 435.643 189.662 435.865 189.515C436.086 189.369 436.338 189.273 436.601 189.235C436.863 189.196 437.132 189.215 437.386 189.292C437.641 189.368 437.876 189.499 438.074 189.675L441.815 187.869L443.467 189.874L438.149 192.351C437.83 192.664 437.407 192.85 436.96 192.873C436.513 192.895 436.073 192.753 435.724 192.474C435.375 192.194 435.141 191.796 435.066 191.355C434.99 190.914 435.08 190.461 435.316 190.081V190.081Z" fill="#A0616A"/>
<path d="M440.512 192.021C440.328 192.021 440.149 191.959 440.005 191.845C439.86 191.731 439.758 191.572 439.715 191.393L439.171 189.135C439.13 188.965 439.144 188.787 439.212 188.625C439.28 188.464 439.397 188.329 439.548 188.24L442.824 186.279L441.149 180.148C441.031 179.712 441.057 179.25 441.223 178.83H441.223C441.381 178.432 441.658 178.092 442.016 177.857C442.374 177.622 442.796 177.502 443.224 177.516C443.653 177.529 444.066 177.674 444.409 177.93C444.752 178.187 445.008 178.543 445.141 178.95L446.99 184.595C447.218 185.283 447.219 186.026 446.996 186.715C446.772 187.404 446.334 188.004 445.746 188.427L440.993 191.865C440.853 191.967 440.685 192.021 440.512 192.021Z" fill="#2F2E41"/>
<path d="M445.927 236.455H426.153C426.102 236.455 426.053 236.434 426.016 236.398C425.98 236.361 425.96 236.312 425.96 236.261C425.96 236.209 425.98 236.16 426.016 236.124C426.053 236.087 426.102 236.067 426.153 236.067H445.927C445.978 236.067 446.028 236.087 446.064 236.124C446.1 236.16 446.121 236.209 446.121 236.261C446.121 236.312 446.1 236.361 446.064 236.398C446.028 236.434 445.978 236.455 445.927 236.455Z" fill="#CCCCCC"/>
</g>
<path d="M408.849 252.066H402.177V258.737H408.849V252.066Z" fill="#CFCCE0"/>
<path d="M407.971 257.859H400.949V250.837H407.971V257.859ZM401.3 257.508H407.62V251.188H401.3L401.3 257.508Z" fill="#3F3D56"/>
<path d="M493.725 243.46L492.254 239.18L488.121 240.6L489.593 244.881L493.725 243.46Z" fill="#F2F2F2"/>
<path d="M489.943 244.131L488.394 239.625L492.744 238.129L494.293 242.635L489.943 244.131ZM488.689 239.775L490.083 243.831L493.998 242.485L492.604 238.429L488.689 239.775Z" fill="#3F3D56"/>
<path d="M399.607 222.181C402.082 222.234 404.051 224.028 404.051 224.028C404.051 224.028 402.007 225.735 399.532 225.682C397.056 225.629 395.087 223.835 395.087 223.835C395.087 223.835 397.131 222.128 399.607 222.181Z" fill="#D61B53"/>
<path d="M387.162 213.731C389.399 214.794 391.963 214.073 391.963 214.073C391.963 214.073 390.902 211.63 388.665 210.568C386.429 209.506 383.865 210.226 383.865 210.226C383.865 210.226 384.926 212.669 387.162 213.731Z" fill="#D61B53"/>
<path d="M387.39 212.676C389.855 212.45 392.013 214.011 392.013 214.011C392.013 214.011 390.174 215.938 387.708 216.163C385.243 216.389 383.085 214.827 383.085 214.827C383.085 214.827 384.924 212.901 387.39 212.676Z" fill="#3F3D56"/>
<path d="M396.428 213.102C396.191 215.567 397.743 217.732 397.743 217.732C397.743 217.732 399.678 215.901 399.914 213.437C400.15 210.972 398.599 208.807 398.599 208.807C398.599 208.807 396.664 210.638 396.428 213.102Z" fill="#3F3D56"/>
<path d="M408.039 228.217C406.746 230.328 407.191 232.955 407.191 232.955C407.191 232.955 409.732 232.158 411.026 230.047C412.319 227.935 411.874 225.309 411.874 225.309C411.874 225.309 409.332 226.106 408.039 228.217Z" fill="#3F3D56"/>
<path d="M404.287 251.172L404.476 251.045C403.812 250.081 403.449 248.941 403.434 247.77C403.439 246.058 404.28 244.474 405.094 242.942C405.245 242.658 405.395 242.375 405.54 242.092C406.148 240.937 406.632 239.721 406.985 238.465C408.246 233.776 407.004 228.244 403.662 223.667C401.01 220.036 397.058 216.861 391.578 213.96L391.472 214.161C396.92 217.045 400.847 220.198 403.478 223.801C406.78 228.323 408.009 233.783 406.765 238.406C406.416 239.647 405.938 240.847 405.337 241.988C405.193 242.27 405.043 242.552 404.893 242.836C404.066 244.392 403.212 246.001 403.206 247.77C403.221 248.986 403.598 250.17 404.287 251.172V251.172Z" fill="#3F3D56"/>
<path d="M380.778 214.259C381.971 214.259 382.938 213.292 382.938 212.098C382.938 210.905 381.971 209.938 380.778 209.938C379.584 209.938 378.617 210.905 378.617 212.098C378.617 213.292 379.584 214.259 380.778 214.259Z" fill="#3F3D56"/>
<path d="M498.406 224.861L470.593 214.872L475.559 201.046L492.876 196.799L503.372 211.036L498.406 224.861Z" fill="#2F2E41"/>
<path d="M495.037 222.119L474.252 214.196C479.648 206.969 482.061 201.871 482.063 193.848L502.847 201.771C498.019 208.63 495.999 213.787 495.037 222.119Z" fill="#F2F2F2"/>
<path d="M496.673 202.855L485.905 198.75L485.714 199.251L496.482 203.356L496.673 202.855Z" fill="#3F3D56"/>
<path d="M495.909 204.859L485.141 200.754L484.95 201.255L495.718 205.359L495.909 204.859Z" fill="#3F3D56"/>
<path d="M495.145 206.862L484.377 202.757L484.187 203.258L494.955 207.363L495.145 206.862Z" fill="#3F3D56"/>
<path d="M494.382 208.865L483.614 204.761L483.423 205.262L494.191 209.366L494.382 208.865Z" fill="#3F3D56"/>
<path d="M493.618 210.869L482.85 206.764L482.659 207.265L493.427 211.37L493.618 210.869Z" fill="#3F3D56"/>
<path d="M492.854 212.872L482.086 208.768L481.896 209.268L492.663 213.373L492.854 212.872Z" fill="#3F3D56"/>
<path d="M492.091 214.875L481.323 210.771L481.132 211.271L491.9 215.376L492.091 214.875Z" fill="#3F3D56"/>
<path d="M491.327 216.879L480.559 212.774L480.368 213.275L491.136 217.379L491.327 216.879Z" fill="#3F3D56"/>
<path d="M497.764 226.65L469.951 216.661L475.559 201.046L487.304 212.059L503.372 211.036L497.764 226.65Z" fill="#3F3D56"/>
<path d="M483.632 221.73L469.763 216.749L473.143 207.34L473.418 207.439L470.138 216.572L483.731 221.454L483.632 221.73Z" fill="#D61B53"/>
<path d="M478.702 211.724L474.636 210.264L474.052 211.89L478.118 213.351L478.702 211.724Z" fill="#D61B53"/>
<path d="M432.727 257.689L410.959 257.678L411.13 245.457L421.948 250.319L432.898 245.761L432.727 257.689Z" fill="#3F3D56"/>
<path d="M415.875 252.144L412.692 252.1L412.674 253.373L415.857 253.417L415.875 252.144Z" fill="#D61B53"/>
<path d="M432.971 245.745L421.968 251.354L411.073 245.745V245.421H432.971V245.745Z" fill="#D61B53"/>
<path d="M496.225 199.49C496.485 198.807 495.165 197.67 493.275 196.95C491.386 196.23 489.644 196.199 489.384 196.882C489.123 197.564 490.444 198.701 492.333 199.421C494.223 200.141 495.965 200.172 496.225 199.49Z" fill="#D61B53"/>
<path d="M499.215 178.68C498.517 178.463 497.783 178.385 497.056 178.452C496.328 178.518 495.62 178.728 494.974 179.068C494.327 179.408 493.753 179.872 493.286 180.433C492.818 180.995 492.466 181.643 492.249 182.341C491.336 185.276 493.823 196.019 493.823 196.019C493.823 196.019 501.964 188.58 502.876 185.645C503.314 184.236 503.175 182.711 502.488 181.404C501.801 180.098 500.624 179.118 499.215 178.68V178.68ZM496.78 186.51C496.282 186.355 495.841 186.056 495.513 185.651C495.186 185.246 494.985 184.752 494.938 184.233C494.89 183.714 494.998 183.193 495.247 182.735C495.496 182.277 495.875 181.903 496.336 181.66C496.798 181.418 497.321 181.317 497.839 181.372C498.357 181.427 498.848 181.634 499.249 181.967C499.649 182.301 499.942 182.746 500.09 183.246C500.238 183.746 500.234 184.278 500.079 184.776C499.977 185.106 499.81 185.413 499.588 185.679C499.367 185.945 499.095 186.165 498.789 186.326C498.482 186.487 498.147 186.587 497.803 186.618C497.458 186.65 497.11 186.613 496.78 186.51V186.51Z" fill="#D61B53"/>
</svg>
