<svg width="301" height="301" viewBox="0 0 301 301" fill="none" xmlns="http://www.w3.org/2000/svg">
<path d="M267.418 55.7152C253.304 38.3123 235.483 24.2796 215.255 14.6407C195.028 5.00187 172.904 0 150.497 0C128.09 0 105.966 5.00187 85.7384 14.6407C65.5108 24.2796 47.6901 38.3123 33.5762 55.7152L58.7644 85.3473L150.774 194.94L242.783 85.3473L242.651 85.1727L267.418 55.7152ZM150.792 177.712L73.0174 85.0884C81.4875 75.0471 91.8013 66.72 103.402 60.5565C118.005 52.8526 134.266 48.8261 150.777 48.8261C167.287 48.8261 183.549 52.8526 198.152 60.5565C209.752 66.72 220.066 75.0471 228.536 85.0884L150.792 177.712Z" fill="white"/>
<path d="M39.1583 168.355L2.25211 124.397C0.746561 133.007 -0.00696302 141.731 4.84809e-05 150.471C4.84809e-05 233.599 67.3813 300.974 150.497 300.974L113.609 257.016L39.1583 168.355Z" fill="white"/>
<path d="M298.742 124.403L261.842 168.36C261.842 168.505 261.788 168.643 261.764 168.782L187.789 256.889L187.385 257.04L150.497 300.997C233.595 300.997 301 233.622 301 150.494C301.006 141.748 300.251 133.018 298.742 124.403Z" fill="white"/>
</svg>
