<svg width="401" height="63" viewBox="0 0 401 63" fill="none" xmlns="http://www.w3.org/2000/svg">
<path d="M59.1191 0.211914H54.7312C54.0726 0.213434 53.4274 0.39874 52.8683 0.747043C52.3092 1.09535 51.8585 1.59277 51.5667 2.18335L31.3464 41.7142L11.126 2.18335C10.8343 1.59277 10.3836 1.09535 9.8245 0.747043C9.26543 0.39874 8.62024 0.213434 7.96155 0.211914H3.57371C2.95324 0.217055 2.34483 0.383845 1.80851 0.695887C1.27218 1.00793 0.826479 1.45439 0.515375 1.99125C0.196754 2.53952 0.0201663 3.15871 0.0016274 3.79256C-0.0169115 4.42642 0.12319 5.05489 0.409222 5.62084L28.1617 60.1451C28.4552 60.7339 28.907 61.2293 29.4664 61.5755C30.0259 61.9218 30.6708 62.1052 31.3287 62.1052C31.9866 62.1052 32.6315 61.9218 33.191 61.5755C33.7504 61.2293 34.2022 60.7339 34.4957 60.1451L62.2482 5.62084C62.5315 5.05412 62.6702 4.42603 62.6516 3.79269C62.6331 3.15934 62.458 2.54044 62.142 1.99125C61.8329 1.46047 61.3925 1.0181 60.8631 0.706501C60.3337 0.394907 59.7332 0.224606 59.1191 0.211914V0.211914Z" fill="white"/>
<path d="M91.1026 0.212335C82.8788 0.212335 74.9919 3.47923 69.1767 9.29435C63.3616 15.1095 60.0947 22.9964 60.0947 31.2203C60.0947 39.4441 63.3616 47.331 69.1767 53.1462C74.9919 58.9613 82.8788 62.2282 91.1026 62.2282C96.551 62.2452 101.905 60.8073 106.612 58.0628C108.17 57.1467 109.648 56.1 111.03 54.9337V58.6492C111.031 59.598 111.409 60.5076 112.08 61.1785C112.75 61.8494 113.66 62.2268 114.609 62.2282H118.532C119.48 62.2268 120.39 61.8494 121.061 61.1785C121.732 60.5076 122.109 59.598 122.111 58.6492V31.2152C122.085 22.9992 118.81 15.1269 113.001 9.31724C107.191 3.50761 99.3187 0.232607 91.1026 0.207275V0.212335ZM91.1026 11.288C95.7141 11.2877 100.183 12.8864 103.748 15.8117C107.313 18.7369 109.753 22.8078 110.653 27.3306C111.553 31.8534 110.857 36.5482 108.683 40.6152C106.509 44.6823 102.993 47.8699 98.7326 49.6348C94.4723 51.3998 89.7318 51.6329 85.3188 50.2945C80.9059 48.9561 77.0935 46.129 74.5314 42.2948C71.9692 38.4607 70.8158 33.8567 71.2675 29.2675C71.7193 24.6782 73.7484 20.3876 77.009 17.1267C78.8289 15.2345 81.0203 13.7391 83.4456 12.7344C85.871 11.7296 88.4779 11.2372 91.1026 11.288Z" fill="white"/>
<path d="M153.129 3.82996e-05C149.566 -0.00595422 146.037 0.69132 142.745 2.05188C139.452 3.41244 136.461 5.40951 133.942 7.92861C131.423 10.4477 129.426 13.4393 128.065 16.7318C126.704 20.0243 126.007 23.553 126.013 27.1156V58.6492C126.013 59.5976 126.389 60.5071 127.06 61.1782C127.73 61.8492 128.639 62.2269 129.587 62.2282H133.51C134.459 62.2269 135.368 61.8494 136.039 61.1785C136.71 60.5076 137.087 59.598 137.089 58.6492V27.1156C137.163 22.9102 138.886 18.9023 141.887 15.9547C144.887 13.0071 148.925 11.3555 153.131 11.3555C157.337 11.3555 161.375 13.0071 164.375 15.9547C167.376 18.9023 169.099 22.9102 169.173 27.1156V58.6492C169.175 59.598 169.552 60.5076 170.223 61.1785C170.894 61.8494 171.804 62.2269 172.752 62.2282H176.64C177.588 62.2269 178.497 61.8492 179.167 61.1782C179.837 60.5071 180.214 59.5976 180.214 58.6492V27.1156C180.22 23.5556 179.524 20.0293 178.165 16.7388C176.806 13.4483 174.812 10.4581 172.296 7.93935C169.78 5.42064 166.792 3.42293 163.503 2.06058C160.214 0.698234 156.689 -0.00196112 153.129 3.82996e-05V3.82996e-05Z" fill="white"/>
<path d="M215.124 0.212472C207.924 0.19413 200.941 2.67429 195.365 7.22993C189.789 11.7856 185.967 18.1345 184.55 25.1937C183.132 32.253 184.208 39.5854 187.593 45.9401C190.978 52.2948 196.463 57.2782 203.113 60.0404C209.762 62.8026 217.163 63.1725 224.055 61.0868C230.946 59.0012 236.901 54.5893 240.902 48.6036C244.904 42.618 246.705 35.4294 245.999 28.264C245.292 21.0987 242.122 14.4004 237.028 9.31164C234.186 6.38712 230.778 4.07207 227.013 2.50769C223.247 0.943304 219.202 0.162366 215.124 0.212472V0.212472ZM215.124 51.1526C210.513 51.1529 206.044 49.5542 202.479 46.629C198.914 43.7037 196.474 39.6329 195.574 35.1101C194.674 30.5873 195.37 25.8924 197.544 21.8253C199.717 17.7583 203.234 14.5708 207.494 12.8058C211.755 11.0409 216.495 10.8077 220.908 12.1461C225.321 13.4845 229.133 16.3117 231.696 20.1458C234.258 23.98 235.411 28.5839 234.959 33.1732C234.508 37.7625 232.479 42.0531 229.218 45.314C227.398 47.2061 225.207 48.7015 222.781 49.7063C220.356 50.711 217.749 51.2034 215.124 51.1526V51.1526Z" fill="white"/>
<path d="M310.827 0.177161C306.219 0.156115 301.708 1.49805 297.861 4.0342C295.815 5.35799 293.981 6.98395 292.422 8.85678C290.867 6.9844 289.037 5.35989 286.993 4.03926C283.131 1.49632 278.604 0.152554 273.981 0.177161C267.638 0.205153 261.563 2.73977 257.081 7.22831C252.599 11.7169 250.074 17.7953 250.055 24.1383V58.6292C250.056 59.578 250.434 60.4876 251.105 61.1585C251.776 61.8294 252.685 62.2069 253.634 62.2082H257.557C258.506 62.2069 259.415 61.8294 260.086 61.1585C260.757 60.4876 261.134 59.578 261.136 58.6292V24.1383C261.13 22.4454 261.459 20.7681 262.103 19.2026C262.748 17.637 263.694 16.214 264.89 15.0151C266.085 13.8161 267.505 12.8649 269.068 12.2158C270.632 11.5668 272.308 11.2326 274.001 11.2326C275.698 11.2001 277.385 11.5172 278.954 12.1642C280.524 12.8112 281.944 13.7744 283.125 14.9937C284.357 16.1709 285.33 17.5923 285.981 19.167C286.632 20.7416 286.947 22.4348 286.907 24.1383V58.6292C286.907 59.5775 287.283 60.4871 287.953 61.1582C288.623 61.8292 289.532 62.2069 290.481 62.2082H294.403C295.353 62.2082 296.263 61.8311 296.934 61.16C297.605 60.4888 297.982 59.5784 297.982 58.6292V24.1383C297.977 22.4454 298.306 20.7681 298.95 19.2026C299.594 17.637 300.541 16.214 301.736 15.0151C302.931 13.8161 304.351 12.8649 305.915 12.2158C307.478 11.5668 309.155 11.2326 310.848 11.2326C312.546 11.2003 314.233 11.5174 315.803 12.1644C317.374 12.8114 318.794 13.7745 319.977 14.9937C321.208 16.1711 322.18 17.5927 322.83 19.1674C323.481 20.7421 323.795 22.4352 323.753 24.1383V58.6292C323.753 59.5784 324.13 60.4888 324.801 61.16C325.473 61.8311 326.383 62.2082 327.332 62.2082H331.255C332.203 62.2069 333.112 61.8292 333.782 61.1582C334.453 60.4871 334.829 59.5775 334.829 58.6292V24.1383C334.815 17.7822 332.285 11.6902 327.79 7.19567C323.296 2.70118 317.204 0.170339 310.848 0.156982L310.827 0.177161Z" fill="white"/>
<path d="M391.623 9.32169C388.019 5.71431 383.58 3.05179 378.701 1.57009C373.822 0.0883985 368.652 -0.166678 363.651 0.827443C358.65 1.82156 353.971 4.03421 350.029 7.26923C346.087 10.5043 343.004 14.6617 341.054 19.3732C339.103 24.0847 338.345 29.2046 338.847 34.2791C339.348 39.3537 341.094 44.2262 343.929 48.4647C346.764 52.7032 350.601 56.1768 355.1 58.5776C359.598 60.9785 364.62 62.2324 369.719 62.2283C375.168 62.2461 380.522 60.8081 385.228 58.0629C386.788 57.1469 388.268 56.1001 389.651 54.9338V58.6493C389.651 59.5977 390.028 60.5072 390.698 61.1783C391.368 61.8493 392.277 62.227 393.225 62.2283H397.158C398.107 62.227 399.016 61.8493 399.686 61.1783C400.356 60.5072 400.732 59.5977 400.732 58.6493V31.2153C400.786 27.1378 400.006 23.0924 398.439 19.3274C396.873 15.5624 394.553 12.1575 391.623 9.32169ZM369.719 11.2881C374.329 11.2883 378.797 12.887 382.36 15.8117C385.924 18.7364 388.363 22.8061 389.263 27.3276C390.162 31.8491 389.466 36.5426 387.293 40.6084C385.12 44.6742 381.604 47.8608 377.345 49.6253C373.086 51.3897 368.347 51.6228 363.935 50.2849C359.524 48.947 355.712 46.1209 353.151 42.288C350.589 38.4551 349.436 33.8526 349.887 29.2646C350.338 24.6767 352.366 20.3871 355.626 17.1268C357.445 15.2347 359.637 13.7393 362.062 12.7345C364.487 11.7297 367.094 11.2373 369.719 11.2881Z" fill="white"/>
</svg>
