<svg width="36" height="36" viewBox="0 0 36 36" fill="none" xmlns="http://www.w3.org/2000/svg">
<path d="M21.4385 24.169L19.1814 24.5352L19.2037 32.6864C19.21 34.5139 20.2851 35.3751 22.0843 35.3694C22.5165 35.3694 22.9225 35.2865 22.9225 35.2865L22.9184 33.9297C22.8938 33.9252 22.7277 33.9252 22.6015 33.9229C21.6525 33.8925 21.4641 33.3733 21.4618 32.775L21.4492 28.1873L22.9024 28.1827L22.8978 26.5738L21.4458 26.5784L21.4384 24.169H21.4385ZM35.4021 33.882C34.4851 33.8156 34.2922 33.4165 34.291 32.75L34.2665 24.1213L32.0614 24.5017L32.0836 32.6149C32.0882 34.5366 33.1405 35.3575 34.8974 35.3524C35.2742 35.3524 35.7402 35.2622 35.7402 35.2622L35.737 33.8849C35.737 33.8849 35.5303 33.8912 35.4024 33.8803L35.4021 33.882ZM13.326 28.1564L13.3425 35.3226L15.5876 35.3163L15.5693 28.5696C15.8634 28.2863 16.4852 28.0342 17.0739 28.0087C17.6214 27.986 17.9772 28.0989 17.9772 28.0989L18.595 26.7091C18.3523 26.5939 17.7773 26.4463 17.1098 26.448C16.1426 26.4525 14.6586 26.737 13.326 28.1563L13.326 28.1564ZM27.7892 33.8961C27.1851 33.8961 26.7751 33.7019 26.509 33.4175C26.1111 32.9917 25.9323 32.1157 25.9769 31.1875L30.7263 31.1743V30.9569C30.6761 27.8646 29.6112 26.4623 27.2907 26.4685C24.7019 26.4758 23.6987 28.8438 23.6855 31.0721C23.6741 32.4783 24.2108 33.8931 25.1941 34.6987C25.7856 35.1886 26.6124 35.4572 27.5676 35.4549C28.0895 35.4549 28.6342 35.3766 29.1293 35.2227C30.0805 34.9263 30.7828 34.4177 30.7828 34.4177L30.1565 33.1483C30.0463 33.2317 29.0984 33.8925 27.7892 33.896V33.8961ZM27.2941 28.0973C28.2739 28.0928 28.4201 29.151 28.4213 29.8067L26.0391 29.813C26.0751 28.9694 26.4245 28.0997 27.2941 28.0974V28.0973ZM4.55633 26.462C3.50344 26.4666 2.55904 26.7635 1.58894 27.2483L1.34113 27.3732L1.93667 28.6858L2.27126 28.528C2.95587 28.2191 3.69072 28.0125 4.34963 28.038C5.14672 28.0689 5.47503 28.4315 5.47732 29.1916L5.47823 29.6361L4.1724 29.6407C2.07404 29.6457 0.773351 30.7568 0.740234 32.4724C0.745396 34.1023 2.11744 35.5057 4.01938 35.5C5.55303 35.4955 6.85201 34.9954 7.72675 34.1211L7.71474 29.4664C7.70789 27.1995 6.07717 26.4581 4.55607 26.4626L4.55633 26.462ZM5.48734 33.6908C5.27094 33.8423 4.82786 33.9746 4.34424 33.9758C3.45865 33.9803 3.05668 33.3047 3.06924 32.5179C3.08349 31.8644 3.49062 31.1241 4.59661 31.1213L5.47992 31.1167L5.48737 33.6885L5.48734 33.6908ZM9.37954 35.3262L11.5818 35.3199L11.5572 26.5992L9.35611 26.9626L9.3795 35.3261L9.37954 35.3262ZM10.4697 23.1157C9.68742 23.1157 9.04963 23.7442 9.05306 24.5118C9.05397 25.2946 9.67314 25.9066 10.4582 25.9038C11.2428 25.9038 11.8554 25.2889 11.8526 24.514C11.8646 24.1439 11.7275 23.7942 11.4689 23.5319C11.2068 23.2622 10.8511 23.1146 10.4697 23.1157" fill="#F21016"/>
<path d="M26.7836 4.45987C26.4136 3.29492 25.6999 2.33716 24.6664 1.61562C24.5454 1.51797 23.2533 0.493221 20.8232 0.500034C18.5998 0.506392 16.1645 1.36523 13.5843 3.05816L13.5032 3.11211L13.4906 3.11893L13.26 3.26367L13.0613 3.39824C12.5342 3.75531 12.0301 4.14195 11.5613 4.55411C10.4724 5.60779 9.23169 7.36657 9.31448 8.8568C9.34874 9.49096 9.61538 10.0059 10.107 10.3868C10.5495 10.7314 11.1028 10.904 11.7469 10.9017C13.0727 10.8972 14.5218 10.1779 15.5125 9.5693L15.6998 9.441C15.8728 9.32859 16.0452 9.21332 16.2171 9.09638L16.3878 8.98342C17.7953 8.03929 19.253 7.06282 20.8945 6.49002C21.3205 6.34182 21.6928 6.27029 22.0365 6.26915C22.2061 6.26915 22.3711 6.2855 22.5298 6.32365C23.0294 6.43665 23.3971 6.71765 23.6164 7.1616C24.0001 7.93428 23.9127 9.1526 23.3971 10.2693C22.6931 11.7913 21.4826 13.2918 19.7965 14.7321C18.9406 15.4633 18.1453 16.0299 17.4384 16.4154L17.375 16.449C17.0467 16.6306 16.675 16.8333 16.2839 16.9832L16.2302 17.0031C16.1131 17.0467 16.0144 17.0866 15.9247 17.1161C14.8593 17.4034 14.877 16.9089 15.0403 16.5166C15.1282 16.302 15.4263 15.9313 15.7883 15.5543C15.9858 15.355 16.1879 15.1666 16.3969 14.9713C16.6213 14.7635 16.8514 14.5495 17.0827 14.3144L17.1341 14.265C17.4207 13.9766 17.8147 13.5826 17.7901 13.0183C17.7553 12.2712 16.9896 11.8074 16.2724 11.7893H16.2205C15.5296 11.7893 14.8787 12.1946 14.4527 12.5341C14.0274 12.8753 13.5717 13.3873 13.2702 13.8682C12.8346 14.5625 11.913 16.3315 12.8169 17.7417C13.18 18.306 13.7818 18.591 14.608 18.5888C15.1859 18.5888 15.8676 18.4457 16.6367 18.1664C17.7873 17.7485 18.6968 17.174 19.5767 16.6176L19.8137 16.4672C20.7455 15.8808 21.6511 15.1984 22.5875 14.3814C24.6539 12.5727 25.8929 10.8042 26.5992 8.64184C26.8847 7.76583 27.2895 6.05874 26.7836 4.46005" fill="#F21016"/>
</svg>
