<svg width="239" height="177" viewBox="0 0 239 177" fill="none" xmlns="http://www.w3.org/2000/svg">
<g clip-path="url(#clip0)">
<path d="M172.105 105.003L173.981 103.843C174.16 103.73 174.336 103.609 174.517 103.496C170.491 102.803 166.823 100.754 164.119 97.6894C161.415 94.6246 159.837 90.7271 159.648 86.6423C159.51 83.833 160.04 81.031 161.195 78.4671C162.271 76.0682 163.859 73.9347 165.848 72.2171C167.836 70.4994 170.177 69.2395 172.705 68.526L172.612 75.9215L176.67 67.872C176.686 67.8694 176.703 67.8694 176.72 67.872C179.071 67.7621 181.421 68.1169 183.636 68.9163C185.85 69.7157 187.886 70.9439 189.626 72.5309C191.366 74.1179 192.777 76.0325 193.778 78.1654C194.779 80.2984 195.351 82.6078 195.461 84.962C195.476 85.3041 195.461 85.6412 195.461 85.9682C196.873 84.3558 198.154 82.6277 199.003 80.7335C200.722 76.8975 200.762 72.5533 200.619 67.2733C200.348 56.809 199.898 46.2668 199.31 35.7547C195.073 35.2836 191.143 33.3154 188.226 30.2037C185.308 27.0921 183.595 23.0408 183.393 18.7779C183.368 18.227 183.376 17.6862 183.393 17.1478C183.393 17.0145 183.393 16.8787 183.413 16.7454C183.449 16.2247 183.496 15.709 183.577 15.2009C183.577 15.1154 183.607 15.0349 183.622 14.9493C183.696 14.5184 183.784 14.0924 183.886 13.6715C183.926 13.5155 183.964 13.3571 184.006 13.2011C184.132 12.7433 184.258 12.293 184.431 11.8478C184.484 11.6994 184.546 11.556 184.602 11.4101C184.73 11.0831 184.868 10.7611 185.014 10.4416C185.092 10.2731 185.167 10.1071 185.25 9.93855C185.27 9.89579 185.288 9.85302 185.31 9.81026C187.202 6.06938 190.343 3.11043 194.188 1.44775C198.033 -0.214929 202.338 -0.476201 206.355 0.709347L206.234 10.3335L210.254 2.38464C213.552 4.2743 216.159 7.16999 217.696 10.6488C219.233 14.1275 219.619 18.0071 218.797 21.7209H218.817C218.789 21.8492 218.749 21.9725 218.719 22.0983C218.664 22.3347 218.603 22.5687 218.538 22.8026C218.453 23.1019 218.357 23.3962 218.259 23.6905C218.184 23.9094 218.111 24.1333 218.028 24.3496C217.908 24.6665 217.777 24.9759 217.631 25.2853C217.551 25.4665 217.478 25.6501 217.38 25.8287C217.15 26.2915 216.899 26.7443 216.626 27.187C216.533 27.3405 216.428 27.4864 216.33 27.6398C216.139 27.9366 215.945 28.2309 215.737 28.5177C215.609 28.6938 215.47 28.8623 215.335 29.0359C215.139 29.2874 214.938 29.539 214.729 29.7679C214.581 29.9364 214.43 30.1024 214.274 30.271C214.056 30.5024 213.83 30.7263 213.596 30.9476C213.443 31.096 213.287 31.2445 213.126 31.3853C212.862 31.6193 212.586 31.8431 212.307 32.062C212.166 32.1727 212.031 32.2884 211.885 32.394C211.461 32.7093 211.023 33.0053 210.571 33.282C210.486 33.3323 210.395 33.375 210.32 33.4254C209.943 33.6492 209.566 33.858 209.161 34.0542C208.993 34.1372 208.817 34.2102 208.644 34.2882C208.32 34.4341 207.993 34.5749 207.659 34.7032C207.466 34.7762 207.267 34.8441 207.069 34.912C206.739 35.0252 206.405 35.1283 206.064 35.2214C205.863 35.2767 205.664 35.3321 205.461 35.3799C205.094 35.4679 204.719 35.5409 204.343 35.6037C204.317 35.6037 204.295 35.6037 204.27 35.6188C204.518 40.0527 204.738 44.4892 204.93 48.9281C205.999 46.7317 207.505 44.777 209.355 43.184C211.205 41.591 213.361 40.3933 215.69 39.6643C218.019 38.9353 220.473 38.6904 222.9 38.9446C225.327 39.1989 227.676 39.9469 229.804 41.1428L226.636 49.8337L233.153 43.5677C236.642 46.7692 238.72 51.2254 238.932 55.9588C239.015 57.6197 238.862 59.2839 238.477 60.9017C237.659 64.4025 235.808 67.5763 233.165 70.0111C230.523 72.446 227.21 74.0296 223.658 74.5564C220.105 75.0833 216.477 74.5291 213.242 72.9658C210.008 71.4024 207.318 68.9021 205.521 65.7892C205.521 66.2395 205.554 66.6923 205.566 67.1425C205.684 71.8011 205.832 77.5967 203.513 82.7736C201.943 86.2826 199.413 89.1326 196.913 91.6858C195.287 93.3485 193.602 94.9559 191.873 96.513C190.173 98.7979 187.955 100.645 185.401 101.901C182.562 104.091 179.622 106.142 176.582 108.054L174.735 109.246C173.029 110.305 171.28 111.392 169.564 112.516C169.866 112.486 170.165 112.453 170.471 112.441C174.27 112.263 178.027 113.298 181.199 115.397C184.371 117.497 186.795 120.551 188.119 124.12L176.919 133.249L189.23 130.389C189.226 133.423 188.455 136.407 186.987 139.062C185.519 141.717 183.403 143.957 180.837 145.571C178.27 147.185 175.336 148.122 172.31 148.293C169.284 148.464 166.264 147.865 163.532 146.55C163.808 146.898 164.087 147.242 164.364 147.587C164.914 148.273 165.461 148.955 165.997 149.632C173.283 158.871 175.313 167.645 171.703 174.334L167.316 171.959C170.833 165.449 165.557 157.118 162.082 152.726C161.557 152.062 161.019 151.393 160.477 150.713C155.821 144.928 150.545 138.358 150.678 130.306C150.866 118.181 162.648 110.869 172.105 105.003Z" fill="#F2F2F2"/>
<path d="M114.865 177C178.071 177 229.309 174.635 229.309 171.718C229.309 168.8 178.071 166.435 114.865 166.435C51.6586 166.435 0.420044 168.8 0.420044 171.718C0.420044 174.635 51.6586 177 114.865 177Z" fill="#3F3D56"/>
<path d="M207.322 169.748C208.076 168.362 207.222 166.664 206.247 165.426C205.272 164.189 204.084 162.911 204.109 161.329C204.144 159.065 206.543 157.729 208.463 156.529C209.884 155.638 211.196 154.582 212.37 153.382C212.863 152.921 213.27 152.376 213.573 151.773C213.968 150.887 213.958 149.881 213.933 148.91C213.849 145.68 213.69 142.454 213.455 139.23" stroke="#3F3D56" stroke-width="4" stroke-miterlimit="10"/>
<path d="M217.101 139.059C217.073 138.468 216.897 137.894 216.59 137.389C216.283 136.883 215.854 136.463 215.342 136.167L214.553 137.731L214.576 135.84C214.036 135.678 213.466 135.648 212.912 135.753C212.359 135.858 211.839 136.094 211.395 136.442C210.952 136.79 210.599 137.24 210.365 137.753C210.132 138.266 210.025 138.828 210.053 139.391C210.097 140.325 210.51 141.204 211.201 141.833C211.543 142.145 211.943 142.386 212.378 142.543C212.813 142.699 213.275 142.769 213.737 142.747C214.199 142.725 214.652 142.613 215.07 142.415C215.489 142.218 215.864 141.941 216.175 141.598C216.487 141.256 216.728 140.855 216.884 140.42C217.041 139.984 217.11 139.522 217.088 139.059H217.101Z" fill="#57B793"/>
<path d="M210.812 162.956C210.443 163.674 209.838 164.244 209.1 164.568C208.361 164.893 207.534 164.954 206.756 164.741C205.978 164.528 205.296 164.053 204.826 163.397C204.356 162.74 204.126 161.942 204.173 161.136C204.221 160.33 204.544 159.564 205.089 158.968C205.633 158.372 206.365 157.981 207.163 157.862C207.961 157.742 208.775 157.9 209.47 158.31C210.166 158.72 210.699 159.357 210.981 160.114L208.78 161.907L211.202 161.344C211.202 161.905 211.068 162.457 210.812 162.956Z" fill="#57B793"/>
<path d="M209.071 156.092C208.608 156.114 208.146 156.044 207.71 155.887C207.274 155.73 206.874 155.488 206.532 155.176C206.189 154.864 205.912 154.486 205.716 154.066C205.52 153.646 205.408 153.192 205.388 152.728C205.36 152.176 205.464 151.625 205.692 151.121C205.903 150.649 206.215 150.229 206.605 149.891C206.996 149.553 207.456 149.305 207.953 149.164L207.935 150.62L208.734 149.036C209.669 148.992 210.583 149.322 211.274 149.952C211.966 150.583 212.379 151.463 212.423 152.399C212.466 153.335 212.137 154.249 211.507 154.942C210.877 155.634 209.998 156.048 209.064 156.092H209.071Z" fill="#57B793"/>
<path d="M217.631 150.379C216.698 150.423 215.786 150.094 215.095 149.465C214.405 148.836 213.992 147.957 213.948 147.023C213.904 146.089 214.232 145.176 214.861 144.485C215.489 143.793 216.367 143.38 217.299 143.336C217.959 143.303 218.614 143.458 219.189 143.783L218.566 145.494L219.847 144.261C220.535 144.891 220.945 145.767 220.988 146.699C221.004 147.025 220.973 147.352 220.897 147.67C220.722 148.416 220.307 149.084 219.718 149.573C219.129 150.062 218.396 150.345 217.631 150.379Z" fill="#57B793"/>
<path opacity="0.1" d="M216.626 139.99C215.812 140.081 215.021 140.335 214.204 140.385C213.388 140.435 212.491 140.239 211.973 139.603C211.694 139.261 211.556 138.828 211.32 138.456C211.097 138.108 210.793 137.82 210.433 137.618C210.22 138.063 210.103 138.548 210.09 139.042C210.076 139.535 210.167 140.026 210.355 140.482C210.543 140.938 210.825 141.35 211.182 141.69C211.539 142.03 211.964 142.291 212.429 142.456C212.893 142.622 213.387 142.687 213.879 142.649C214.37 142.611 214.848 142.469 215.282 142.234C215.715 141.999 216.094 141.675 216.395 141.284C216.695 140.893 216.91 140.442 217.026 139.962C216.89 139.967 216.757 139.978 216.626 139.99Z" fill="black"/>
<path opacity="0.1" d="M217.631 150.379C217.023 150.41 216.417 150.282 215.873 150.008C215.329 149.735 214.865 149.324 214.527 148.817C214.189 148.31 213.988 147.724 213.945 147.116C213.901 146.508 214.015 145.898 214.277 145.348C214.557 145.537 214.797 145.779 214.985 146.06C215.237 146.44 215.387 146.877 215.684 147.227C216.232 147.874 217.171 148.085 218.023 148.045C218.875 148.004 219.694 147.765 220.536 147.687C220.651 147.687 220.772 147.667 220.89 147.665C220.715 148.41 220.303 149.079 219.715 149.568C219.127 150.058 218.395 150.343 217.631 150.379Z" fill="black"/>
<path opacity="0.1" d="M209.071 156.092C208.608 156.114 208.146 156.044 207.71 155.887C207.274 155.73 206.874 155.488 206.532 155.176C206.189 154.863 205.912 154.486 205.716 154.066C205.52 153.646 205.408 153.192 205.388 152.728C205.36 152.176 205.464 151.625 205.692 151.121C205.984 151.312 206.24 151.555 206.445 151.838C206.719 152.225 206.89 152.67 207.199 153.028C207.795 153.692 208.795 153.926 209.697 153.903C210.599 153.88 211.41 153.669 212.279 153.604C212.065 154.298 211.642 154.91 211.068 155.355C210.494 155.8 209.796 156.057 209.071 156.092Z" fill="black"/>
<path opacity="0.1" d="M210.812 162.956C210.622 163.379 210.351 163.76 210.015 164.078C209.678 164.396 209.282 164.644 208.849 164.808C208.416 164.973 207.956 165.051 207.493 165.037C207.03 165.023 206.575 164.918 206.153 164.728C205.731 164.538 205.35 164.267 205.033 163.93C204.715 163.593 204.467 163.196 204.303 162.763C204.138 162.33 204.061 161.868 204.075 161.405C204.088 160.942 204.193 160.486 204.383 160.063C204.672 160.256 204.933 160.489 205.157 160.755C205.491 161.165 205.712 161.628 206.101 162.013C206.822 162.72 207.986 163.019 209.021 163.039C209.619 163.047 210.217 163.019 210.812 162.956Z" fill="black"/>
<path d="M202.006 168.151C202.006 168.151 204.787 168.065 205.626 167.466C206.466 166.868 209.898 166.153 210.116 167.114C210.335 168.075 214.3 171.894 211.156 171.909C208.013 171.924 203.855 171.406 203.018 170.903C202.182 170.399 202.006 168.151 202.006 168.151Z" fill="#656380"/>
<path opacity="0.2" d="M211.212 171.574C208.071 171.599 203.91 171.071 203.074 170.568C202.438 170.181 202.182 168.785 202.099 168.141H202.006C202.006 168.141 202.182 170.387 203.011 170.908C203.84 171.428 208.006 171.934 211.149 171.914C212.056 171.914 212.37 171.582 212.352 171.104C212.234 171.388 211.888 171.569 211.212 171.574Z" fill="black"/>
<path d="M49.2657 161.988C47.4416 158.607 49.5169 154.467 51.8887 151.453C54.2605 148.439 57.165 145.305 57.1022 141.464C57.0117 135.945 51.1626 132.688 46.4893 129.762C43.0216 127.591 39.8227 125.017 36.9594 122.093C35.8112 120.918 34.6982 119.665 34.0298 118.166C33.065 116.008 33.0902 113.555 33.153 111.191C33.354 103.309 33.7426 95.4422 34.3188 87.5906" stroke="#3F3D56" stroke-width="4" stroke-miterlimit="10"/>
<path d="M25.432 87.1605C25.5008 85.7206 25.9298 84.3211 26.6797 83.0904C27.4295 81.8598 28.4761 80.8374 29.7234 80.1172L31.648 83.9282L31.5902 79.3148C33.3386 78.799 35.2056 78.8529 36.9214 79.4686C38.6373 80.0844 40.1133 81.2302 41.1363 82.7406C42.1593 84.2509 42.6764 86.0477 42.6129 87.8715C42.5495 89.6953 41.9087 91.4517 40.7831 92.8871C39.6575 94.3225 38.1054 95.3627 36.3509 95.8573C34.5963 96.352 32.7302 96.2756 31.0219 95.6391C29.3135 95.0027 27.8514 93.8392 26.8467 92.3165C25.842 90.7939 25.3466 88.991 25.432 87.1681V87.1605Z" fill="#57B793"/>
<path d="M40.7633 145.408C41.6277 147.095 43.0241 148.448 44.7357 149.258C46.4474 150.069 48.3783 150.29 50.2286 149.889C52.0789 149.487 53.745 148.485 54.968 147.038C56.1909 145.591 56.9023 143.78 56.9916 141.887C57.0516 140.696 56.8607 139.507 56.4313 138.395C55.8036 136.765 54.6951 135.364 53.2533 134.38C51.8114 133.395 50.1044 132.874 48.3592 132.884C46.614 132.894 44.9131 133.435 43.4827 134.436C42.0524 135.438 40.9602 136.851 40.3513 138.488L45.7205 142.86L39.8136 141.484C39.8112 142.85 40.1369 144.196 40.7633 145.408Z" fill="#57B793"/>
<path d="M45.007 128.701C47.1148 128.797 49.1846 128.114 50.8221 126.782C52.4596 125.45 53.5506 123.561 53.8873 121.475C54.224 119.39 53.783 117.253 52.6481 115.472C51.5133 113.691 49.7639 112.39 47.733 111.817L47.7783 115.361L45.8436 111.505H45.821C43.5431 111.399 41.3162 112.203 39.6303 113.74C37.9444 115.277 36.9376 117.422 36.8313 119.703C36.725 121.984 37.528 124.213 39.0636 125.901C40.5992 127.589 42.7416 128.597 45.0195 128.703L45.007 128.701Z" fill="#57B793"/>
<path d="M24.1381 114.798C25.469 114.863 26.7968 114.617 28.0166 114.08C29.2365 113.543 30.315 112.73 31.167 111.704C32.019 110.678 32.6212 109.469 32.9261 108.17C33.2311 106.871 33.2303 105.519 32.9239 104.221C32.6176 102.923 32.014 101.713 31.1608 100.689C30.3076 99.664 29.2282 98.8518 28.0078 98.3163C26.7873 97.7807 25.4593 97.5365 24.1284 97.603C22.7976 97.6694 21.5004 98.0446 20.3392 98.6989L21.8467 102.867L18.7337 99.8561C17.9015 100.614 17.2268 101.529 16.7483 102.549C16.2697 103.568 15.9967 104.672 15.9448 105.798C15.9049 106.594 15.9785 107.392 16.1634 108.167C16.5907 109.991 17.6007 111.625 19.04 112.822C20.4792 114.018 22.2692 114.712 24.1381 114.798Z" fill="#57B793"/>
<path opacity="0.1" d="M26.5878 89.4546C28.5727 89.6735 30.5023 90.2897 32.4922 90.413C34.4821 90.5363 36.6705 90.0608 37.9292 88.5113C38.6076 87.6762 38.9468 86.6197 39.5197 85.7091C40.0625 84.8606 40.8065 84.1598 41.6854 83.6691C42.2328 84.7598 42.5421 85.9547 42.5929 87.1743C42.6438 88.394 42.4349 89.6105 41.9802 90.7431C41.5256 91.8757 40.8355 92.8986 39.9558 93.7438C39.0761 94.589 38.0269 95.2372 36.8778 95.6455C35.7288 96.0537 34.5061 96.2125 33.2911 96.1115C32.076 96.0105 30.8963 95.6519 29.8302 95.0595C28.7642 94.4671 27.8361 93.6545 27.1077 92.6756C26.3793 91.6967 25.8672 90.5739 25.6054 89.3817C25.9396 89.3968 26.2662 89.4194 26.5878 89.4546Z" fill="black"/>
<path opacity="0.1" d="M24.1381 114.798C25.6196 114.866 27.0935 114.55 28.4169 113.88C29.7403 113.21 30.8682 112.209 31.6912 110.973C32.5141 109.738 33.0041 108.311 33.1137 106.83C33.2232 105.349 32.9485 103.866 32.3163 102.522C31.6337 102.982 31.0467 103.57 30.5877 104.253C29.9746 105.179 29.6053 106.248 28.8842 107.098C27.5451 108.673 25.2587 109.188 23.1833 109.095C21.108 109.002 19.1055 108.409 17.0403 108.22C16.7538 108.195 16.4624 108.175 16.1735 108.167C16.6003 109.989 17.6088 111.622 19.046 112.819C20.4833 114.015 22.2709 114.71 24.1381 114.798Z" fill="black"/>
<path opacity="0.1" d="M45.007 128.701C46.474 128.77 47.9342 128.461 49.2483 127.805C50.5623 127.148 51.6865 126.165 52.5134 124.95C53.3403 123.735 53.8425 122.328 53.972 120.863C54.1015 119.399 53.8539 117.925 53.253 116.584C52.5451 117.055 51.9294 117.651 51.4365 118.345C50.7681 119.288 50.3511 120.375 49.5697 121.245C48.12 122.862 45.6828 123.433 43.4844 123.381C41.3563 123.335 39.3061 122.812 37.1906 122.649C37.7143 124.339 38.7457 125.827 40.1443 126.91C41.5429 127.993 43.2408 128.618 45.007 128.701Z" fill="black"/>
<path opacity="0.1" d="M40.7633 145.408C41.6277 147.095 43.0241 148.448 44.7357 149.258C46.4474 150.069 48.3783 150.29 50.2286 149.889C52.0789 149.487 53.745 148.485 54.9679 147.038C56.1909 145.591 56.9023 143.78 56.9916 141.887C57.0516 140.696 56.8607 139.507 56.4313 138.395C55.724 138.86 55.089 139.428 54.5469 140.078C53.7304 141.084 53.1902 142.206 52.2455 143.137C50.4867 144.863 47.6501 145.577 45.125 145.652C43.6676 145.657 42.2111 145.576 40.7633 145.408Z" fill="black"/>
<path d="M108.764 167.014L75.5992 173.805L74.8455 173.73L45.7004 170.787V133.81L81.378 127.773L107.257 130.791L107.264 130.955L107.267 131.035L108.764 167.014Z" fill="#D61B53"/>
<path opacity="0.1" d="M108.764 167.014L75.5992 173.805L74.8455 173.73V135.822L107.264 130.955L108.764 167.014Z" fill="black"/>
<path opacity="0.05" d="M107.267 131.035L107.257 131.043L74.8455 135.822L45.7004 133.81L81.378 127.773L107.257 130.791L107.264 130.955L107.267 131.035Z" fill="black"/>
<path d="M145.196 168.523L112.031 175.315L111.277 175.239L82.1317 172.296V135.319L117.809 129.282L143.688 132.3L143.696 132.464L143.698 132.544L145.196 168.523Z" fill="#3F3D56"/>
<path opacity="0.1" d="M145.196 168.523L112.031 175.315L111.277 175.239V137.331L143.696 132.464L145.196 168.523Z" fill="black"/>
<path opacity="0.05" d="M143.698 132.544L143.688 132.552L111.277 137.331L82.1317 135.319L117.809 129.282L143.688 132.3L143.696 132.464L143.698 132.544Z" fill="black"/>
<path d="M122.332 132.3L89.1667 139.092L88.413 139.017L59.2679 136.074V99.0964L94.9455 93.0593L120.824 96.0778L120.832 96.2413L120.834 96.3218L122.332 132.3Z" fill="#3F3D56"/>
<path opacity="0.1" d="M122.332 132.3L89.1667 139.092L88.413 139.017V101.109L120.832 96.2413L122.332 132.3Z" fill="black"/>
<path opacity="0.05" d="M120.834 96.3218L120.824 96.3293L88.413 101.109L59.2679 99.0963L94.9455 93.0593L120.824 96.0778L120.832 96.2413L120.834 96.3218Z" fill="black"/>
<path d="M141.176 133.85L123.867 137.397L123.473 137.356L108.262 135.82V116.521L126.882 113.369L140.389 114.946L140.394 115.032V115.072L141.176 133.85Z" fill="#3F3D56"/>
<path opacity="0.1" d="M141.176 133.85L123.867 137.397L123.473 137.356V117.572L140.394 115.032L141.176 133.85Z" fill="black"/>
<path opacity="0.05" d="M140.394 115.072L140.389 115.077L123.473 117.572L108.262 116.521L126.882 113.369L140.389 114.946L140.394 115.032V115.072Z" fill="black"/>
<path d="M94.6943 96.3696L77.3856 99.9139L76.9912 99.8761L61.7804 98.3392V79.0406L80.4006 75.8887L93.9079 77.4659L93.9129 77.5514V77.5917L94.6943 96.3696Z" fill="#3F3D56"/>
<path opacity="0.1" d="M94.6943 96.3696L77.3856 99.9139L76.9911 99.8761V80.0921L93.9129 77.5515L94.6943 96.3696Z" fill="black"/>
<path opacity="0.05" d="M93.9129 77.5917L93.9078 77.5967L76.9912 80.0921L61.7804 79.0406L80.4006 75.8887L93.9078 77.4659L93.9129 77.5515V77.5917Z" fill="black"/>
<path d="M125.096 95.615L107.787 99.1593L107.392 99.1215L92.1818 97.5846V78.286L110.802 75.1342L124.309 76.7113L124.314 76.7969V76.8371L125.096 95.615Z" fill="#D61B53"/>
<path opacity="0.1" d="M125.096 95.6149L107.787 99.1592L107.392 99.1215V79.3374L124.314 76.7968L125.096 95.6149Z" fill="black"/>
<path opacity="0.05" d="M124.314 76.8371L124.309 76.8421L107.392 79.3375L92.1818 78.286L110.802 75.1342L124.309 76.7113L124.314 76.7969V76.8371Z" fill="black"/>
<path d="M134.141 76.246L116.832 79.7903L116.437 79.7525L101.227 78.2156V58.917L119.847 55.7651L133.354 57.3423L133.359 57.4279V57.4681L134.141 76.246Z" fill="#3F3D56"/>
<path opacity="0.1" d="M134.141 76.246L116.832 79.7903L116.438 79.7525V59.9685L133.359 57.4279L134.141 76.246Z" fill="black"/>
<path opacity="0.05" d="M133.359 57.4681L133.354 57.4731L116.437 59.9685L101.227 58.917L119.847 55.7651L133.354 57.3423L133.359 57.4279V57.4681Z" fill="black"/>
<path d="M145.929 36.7936C145.746 38.4286 144.5 39.7467 144.037 41.3214C143.344 43.6985 144.54 46.2517 146.188 48.1131C147.516 49.5921 149.125 50.7926 150.92 51.645C152.715 52.4973 154.661 52.9846 156.645 53.0786C157.228 53.1289 157.815 53.0648 158.374 52.89C158.871 52.6873 159.319 52.3802 159.688 51.9894C160.924 50.7443 161.59 49.0212 161.854 47.283C162.117 45.5448 162.017 43.7765 161.914 42.0232C161.914 41.6604 161.847 41.3006 161.718 40.9617C161.55 40.6393 161.318 40.3544 161.037 40.124C160.146 39.3041 159.164 38.5893 158.11 37.9934C157.658 37.7419 157.173 37.4903 156.884 37.0552C156.686 36.7086 156.557 36.3267 156.504 35.9308L156.18 34.2806C156.123 33.8048 155.961 33.3478 155.705 32.9424C155.135 32.1727 154.042 32.067 153.085 32.0293L149.567 31.8909C148.474 31.8482 147.037 31.5337 145.969 31.7501C144.964 31.9488 145.304 32.8695 145.485 33.7046C145.746 34.7146 145.895 35.7506 145.929 36.7936Z" fill="#A0616A"/>
<path d="M168.268 110.436L166.776 126.817C166.386 131.113 165.989 135.427 165.225 139.668C164.974 141.13 164.652 142.583 164.286 144.025C163.266 148.027 161.786 151.938 161.308 156.041C161.293 156.159 161.281 156.293 161.268 156.401C161.17 157.306 161.085 158.222 160.766 159.067C160.514 159.694 160.16 160.265 159.901 160.883C159.399 162.121 159.318 163.489 159.256 164.83C157.444 163.807 155.461 163.124 153.404 162.818C152.399 162.669 151.306 162.566 150.64 161.812C149.886 160.992 149.974 159.736 150.1 158.635C150.495 155.214 150.889 151.794 151.281 148.377C151.412 146.906 151.664 145.449 152.035 144.02C152.17 143.544 152.334 143.077 152.499 142.609C152.728 141.965 152.959 141.321 153.133 140.659C153.373 139.596 153.539 138.518 153.63 137.432C154.035 133.991 154.522 130.557 154.949 127.118L154.972 126.937C155.612 121.725 156.1 116.488 155.959 111.238C155.939 110.461 155.906 109.684 155.856 108.904C155.786 107.775 155.683 107.176 156.61 106.469C157.643 105.689 159.002 105.143 160.183 104.633C160.818 104.356 167.818 101.866 167.971 102.414C168.296 103.579 168.465 104.782 168.474 105.991C168.488 107.475 168.419 108.959 168.268 110.436Z" fill="#605D82"/>
<path opacity="0.1" d="M165.225 139.668C164.974 141.13 164.652 142.584 164.286 144.025C163.266 148.027 161.786 151.939 161.308 156.041C161.293 156.159 161.281 156.293 161.268 156.401C158.148 151.939 155.52 147.139 152.474 142.629C152.703 141.985 152.934 141.341 153.108 140.679C153.357 139.61 153.532 138.525 153.63 137.432C154.035 133.991 154.522 130.557 154.949 127.119L154.972 126.937C155.148 127.667 155.401 128.376 155.726 129.053C157.771 133.213 162.63 135.316 165.007 139.298C165.085 139.422 165.158 139.546 165.225 139.668Z" fill="black"/>
<path d="M139.904 103.088C140.007 106.424 140.54 109.732 141.073 113.027L142.171 119.819C142.771 123.542 143.399 127.337 145.158 130.67C146.474 133.166 148.369 135.294 150.085 137.53C154.301 143.029 157.469 149.26 161.467 154.919C162.63 156.564 164.291 158.345 166.273 158.001C167.575 157.777 168.519 156.69 169.539 155.855C170.745 154.869 172.198 154.147 173.147 152.909C174.097 151.672 174.283 149.619 172.997 148.739C172.557 148.44 172.022 148.326 171.524 148.135C169.532 147.381 168.24 145.429 167.421 143.456C166.602 141.484 166.102 139.369 165.009 137.535C162.632 133.553 157.771 131.45 155.726 127.287C154.58 124.958 154.469 122.256 154.384 119.673L154.16 113.055C154.135 112.33 154.118 111.578 154.411 110.916C155.193 109.156 157.555 108.99 159.469 108.766C161.64 108.512 163.744 107.848 165.668 106.809C166.771 106.213 167.846 105.453 168.431 104.346C168.969 103.34 169.042 102.155 169.105 101.013L169.768 89.0169C169.826 87.9856 169.876 86.9165 169.517 85.9506C168.605 83.5206 165.539 82.7258 162.949 82.8415C158.13 83.0578 153.683 85.1331 149.13 86.5367C148.002 86.8838 146.869 87.1957 145.706 87.4297C144.701 87.6334 143.444 87.5504 142.48 87.8774C140.751 88.461 140.794 92.2493 140.55 93.8189C140.047 96.8819 139.831 99.9852 139.904 103.088Z" fill="#605D82"/>
<path d="M165.62 158.509C166.044 158.939 166.183 159.568 166.293 160.162C166.907 163.456 167.227 166.799 167.248 170.15C167.22 170.463 167.282 170.777 167.426 171.056C167.547 171.221 167.709 171.351 167.896 171.433C169.125 172.019 170.549 171.202 171.574 170.304C173.471 168.641 175.077 166.407 175.185 163.884C175.213 163.235 175.14 162.579 175.253 161.937C175.419 160.987 175.974 160.159 176.461 159.329C177.295 157.914 177.969 156.411 178.471 154.846C178.657 154.258 178.783 153.518 178.321 153.108C178.159 152.979 177.974 152.883 177.775 152.824L172.223 150.761C171.74 150.583 170.544 153.659 170.356 153.996C169.891 154.819 169.429 155.284 168.497 155.475C167.564 155.666 166.414 155.39 165.524 155.865C164.017 156.668 164.768 157.651 165.62 158.509Z" fill="#535070"/>
<path d="M157.057 160.408C156.954 160.203 156.811 160.02 156.635 159.872C156.378 159.709 156.086 159.609 155.783 159.583C154.728 159.402 153.477 159.284 152.746 160.071C152.062 160.808 152.18 162.008 151.61 162.838C151.429 163.089 151.183 163.316 151.027 163.593C150.834 164.016 150.747 164.481 150.776 164.946C150.746 166.226 150.716 167.512 150.806 168.79C150.879 169.861 151.057 170.985 151.728 171.826C152.803 173.174 154.743 173.368 156.462 173.453L157.856 173.526C158.24 173.571 158.628 173.535 158.997 173.42C159.225 173.315 159.43 173.165 159.6 172.979C159.769 172.792 159.899 172.574 159.982 172.336C160.708 170.53 159.56 168.586 158.851 166.775C158.035 164.689 158.18 162.378 157.057 160.408Z" fill="#535070"/>
<path d="M145.527 27.5744C145.509 27.3913 145.536 27.2066 145.605 27.0361C145.809 26.6764 146.341 26.7845 146.743 26.8751C148.359 27.2826 150.062 26.9128 151.728 27.0084C153.394 27.104 155.268 27.9366 155.602 29.5716C156.811 28.7154 157.852 27.6445 158.675 26.4122C159.137 25.7205 159.539 24.9281 159.477 24.098C159.386 22.9007 158.384 22.0052 157.467 21.2455L154.703 18.9816C154.339 18.6472 153.919 18.3798 153.462 18.1917C152.824 17.9729 152.125 18.0785 151.452 18.0785C149.442 18.0785 147.286 17.1604 145.495 18.0785C144.741 18.4634 144.181 19.125 143.638 19.7689L141.168 22.6969C140.981 22.8836 140.845 23.1146 140.771 23.3685C140.701 23.7257 140.884 24.0779 140.949 24.4376C141.065 25.0916 140.784 25.7909 141 26.4198C141.359 27.4612 142.625 27.6096 143.399 28.2083C143.686 28.4296 144.138 29.1868 144.482 29.1767C145.088 29.1641 145.51 28.0573 145.527 27.5744Z" fill="#3F3D56"/>
<path d="M149.718 36.21C154.089 36.21 157.633 32.6624 157.633 28.2863C157.633 23.9102 154.089 20.3626 149.718 20.3626C145.347 20.3626 141.804 23.9102 141.804 28.2863C141.804 32.6624 145.347 36.21 149.718 36.21Z" fill="#A76A72"/>
<path d="M151.572 45.6253C151.304 44.8573 150.799 44.1945 150.131 43.7324C149.462 43.2704 148.664 43.033 147.851 43.0545C147.618 43.099 147.377 43.0682 147.163 42.9665C147.041 42.8736 146.944 42.7528 146.879 42.6143C146.399 41.7471 146.013 40.8314 145.726 39.8826C145.6 39.4625 145.427 38.9669 145.002 38.8588C144.66 38.7707 144.311 38.9921 144.083 39.2612C143.88 39.5501 143.66 39.8264 143.424 40.0888C142.419 40.9793 140.661 40.1668 139.608 40.9843C139.434 41.1176 139.291 41.2887 139.105 41.4119C138.924 41.5223 138.729 41.607 138.525 41.6635C136.481 42.3291 134.478 43.1127 132.525 44.0104C133.229 48.2464 133.947 52.563 135.595 56.5248C136.379 58.4114 137.266 60.2603 137.894 62.2047C139.286 66.5137 139.346 71.1245 139.364 75.6548C139.364 78.7539 139.364 81.9183 138.359 84.8513C138.133 85.5154 137.857 86.1745 137.794 86.8637C137.731 87.5529 137.937 88.3327 138.502 88.7453C138.83 88.9614 139.205 89.0936 139.595 89.1301C141.331 89.3817 143.08 88.9239 144.789 88.5264C149.369 87.4649 154.042 86.8562 158.703 86.2625L166.517 85.2563C167.077 85.2171 167.626 85.0747 168.135 84.8362C169.564 84.0539 169.7 81.9007 168.811 80.5323C168.386 79.8758 167.786 79.3375 167.426 78.6432C167.067 77.9489 167.039 76.9729 167.655 76.4925C168.911 75.5115 168.534 73.6928 168.595 72.103C168.762 67.6557 168.739 63.2117 168.527 58.7711C168.463 57.8502 168.448 56.9266 168.482 56.0041C168.569 54.4395 168.956 52.9076 169.343 51.3857L171.718 42.0282C171.097 41.0472 169.909 40.4234 168.786 40.1416C167.662 39.8599 166.489 39.7769 165.381 39.4323C163.12 38.728 161.09 36.942 158.72 37.108C158.541 37.1112 158.364 37.1542 158.203 37.2338C157.67 37.5381 157.753 38.3079 157.72 38.9216C157.645 40.2825 156.645 41.417 155.545 42.2144C154.444 43.0118 153.183 43.5903 152.17 44.4984C151.994 44.6311 151.85 44.8008 151.747 44.9955C151.643 45.1902 151.584 45.4052 151.572 45.6253Z" fill="#EC4977"/>
<path d="M120.214 54.5024C119.69 54.8436 119.132 55.1309 118.551 55.3601C117.998 55.579 117.407 55.7525 116.955 56.1349C116.731 56.3294 116.543 56.5618 116.4 56.8216C116.132 57.2973 115.997 57.8361 116.008 58.382C116.019 58.9279 116.176 59.4608 116.463 59.9251C116.75 60.3894 117.156 60.7681 117.639 61.0217C118.122 61.2754 118.664 61.3946 119.209 61.367C119.935 61.3293 120.621 61.035 121.287 60.7457L126.869 58.3133C127.814 57.9033 128.834 57.4253 129.281 56.4946C129.333 56.4075 129.352 56.3052 129.337 56.2053C129.293 56.0957 129.211 56.006 129.106 55.9538C127.848 55.1343 126.747 54.0948 125.857 52.8849C125.628 52.573 125.354 51.8385 125.023 51.6498C123.842 50.9933 121.161 53.8886 120.214 54.5024Z" fill="#A0616A"/>
<path d="M179.891 52.5277L181.949 54.8822C182.391 55.3853 182.833 55.8884 183.235 56.4317C184.224 57.7957 185.018 59.2919 185.592 60.8765C186.039 62.0512 186.411 63.3039 186.255 64.5516C186.151 65.1912 185.978 65.8178 185.74 66.4206C185.363 67.5793 184.895 68.7064 184.34 69.7913C183.877 70.6145 183.354 71.4023 182.775 72.1483C181.181 74.2626 179.437 76.2592 177.557 78.1225C176.853 78.8193 176.552 79.9487 176.253 80.8895C175.687 82.6277 174.343 83.9835 173.044 85.2664C172.626 85.7086 172.164 86.1064 171.665 86.4537C170.917 86.9368 170.042 87.1855 169.152 87.168C168.764 87.1703 168.38 87.0906 168.024 86.9341C167.135 86.5115 166.683 85.4827 166.59 84.5017C166.508 83.6102 166.656 82.7127 167.022 81.8957C168.203 79.2771 171.235 78.1426 173.378 76.2309C174.635 75.1115 175.597 73.7028 176.547 72.3118C177.19 71.4423 177.727 70.499 178.147 69.502C178.625 68.2216 178.439 66.7073 178.858 65.4094C179.034 64.8585 179.361 64.3629 179.539 63.8171C179.717 63.2712 179.778 62.6247 179.444 62.1544C179.193 61.8537 178.873 61.6188 178.511 61.4702C177.142 60.7759 175.61 59.8804 175.348 58.3636C175.244 57.5236 175.463 56.6752 175.961 55.9915C176.457 55.3165 177.037 54.7078 177.687 54.1804C178.283 53.6421 179.29 53.0459 179.891 52.5277Z" fill="#A0616A"/>
<path d="M118.892 57.7876C118.53 57.0531 118.076 56.3035 117.342 55.9387C116.985 55.7845 116.6 55.705 116.211 55.705C115.823 55.705 115.438 55.7845 115.081 55.9387C114.37 56.2465 113.704 56.6492 113.101 57.1361L111.327 58.4466C110.925 58.7108 110.569 59.0398 110.274 59.4201C109.993 59.8816 109.807 60.3947 109.727 60.9294C109.475 62.1544 109.272 63.4146 109.448 64.6548C109.729 66.6671 110.935 68.4078 112.262 69.9372C113.091 70.8881 114.116 71.849 115.377 71.8917C115.922 71.9093 116.528 71.693 116.754 71.1975C116.833 71.0006 116.875 70.7908 116.877 70.5787C117.013 68.3449 116.214 66.164 115.284 64.129C115.033 63.5756 114.762 63.0021 114.782 62.3959C114.774 62.293 114.801 62.1904 114.857 62.1041C114.937 62.0204 115.044 61.9678 115.159 61.9557C116.432 61.7041 118.628 62.6952 119.52 61.279C120.098 60.3433 119.304 58.6202 118.892 57.7876Z" fill="#A0616A"/>
<path d="M145.11 25.0816C145.094 24.8983 145.122 24.7139 145.191 24.5433C145.394 24.181 145.927 24.2917 146.329 24.3823C147.944 24.7898 149.648 24.42 151.314 24.5156C152.979 24.6112 154.851 25.4438 155.188 27.0789C156.395 26.2212 157.436 25.1506 158.261 23.9194C158.723 23.2252 159.125 22.4328 159.062 21.6027C158.972 20.4053 157.967 19.5098 157.052 18.7527L154.288 16.4888C153.925 16.1545 153.506 15.8871 153.05 15.6989C152.409 15.4801 151.713 15.5857 151.04 15.5857C149.03 15.5857 146.874 14.6676 145.083 15.5857C144.329 15.9706 143.769 16.6322 143.226 17.2761L140.754 20.2041C140.568 20.3912 140.432 20.6222 140.359 20.8757C140.289 21.2329 140.472 21.5851 140.537 21.9448C140.653 22.5988 140.372 23.2981 140.588 23.9245C140.947 24.9684 142.213 25.1168 142.987 25.7155C143.274 25.9368 143.726 26.694 144.07 26.6839C144.665 26.6713 145.088 25.5645 145.11 25.0816Z" fill="#3F3D56"/>
<path d="M128.302 46.795C127.983 47.0024 127.702 47.2637 127.472 47.5673C127.183 48.0075 127.123 48.5734 126.874 49.0262C126.342 50.0173 125.093 50.372 124.317 51.1845C124.191 51.2955 124.103 51.4434 124.065 51.6071C124.061 51.8283 124.135 52.0441 124.274 52.2158L128.028 58.1221C129.284 58.2328 130.475 57.448 131.726 57.5536C132.191 57.5913 132.671 57.7523 133.118 57.614C133.438 57.4714 133.737 57.2879 134.01 57.0681C134.764 56.5952 135.749 56.5399 136.374 55.9186C137 55.2973 137.053 54.3841 137.045 53.5364C137.056 52.8007 136.981 52.0662 136.821 51.348C136.269 49.0841 134.538 47.3384 133.452 45.331C132.922 44.3525 132.636 43.7815 131.518 44.4531C130.399 45.1247 129.359 46.0202 128.302 46.795Z" fill="#EC4977"/>
<path d="M173.881 43.8092C174.586 44.2678 175.223 44.8251 175.77 45.4643C176.341 46.2014 176.665 47.1069 177.215 47.8616C177.765 48.6162 178.471 49.1595 179.074 49.8337C179.991 50.8549 180.612 52.0976 181.22 53.3327C179.732 55.2716 178.109 57.1039 176.366 58.8164C176.171 59.0454 175.915 59.2131 175.627 59.2993C175.432 59.3203 175.235 59.2924 175.053 59.2182C174.872 59.144 174.712 59.0258 174.587 58.8742C174.316 58.5925 174.125 58.2403 173.866 57.946C173.256 57.3165 172.443 56.9235 171.572 56.8367C170.708 56.7524 169.838 56.7398 168.971 56.799C168.781 56.8215 168.589 56.7893 168.416 56.7059C168.288 56.6177 168.184 56.4982 168.115 56.3588C167.11 54.6281 167.424 52.4548 167.783 50.4776L168.605 45.9498C168.725 45.0853 168.955 44.2399 169.291 43.4344C169.602 42.7678 170.296 41.6358 171.155 41.837C172.014 42.0383 173.155 43.2859 173.881 43.8092Z" fill="#EC4977"/>
<path d="M102.232 77.0006L84.9231 80.5449L84.5287 80.5072L69.318 78.9702V59.6716L87.9381 56.5198L101.445 58.097L101.45 58.1825V58.2227L102.232 77.0006Z" fill="#D61B53"/>
<path opacity="0.1" d="M102.232 77.0006L84.9231 80.5449L84.5287 80.5072V60.7231L101.45 58.1825L102.232 77.0006Z" fill="black"/>
<path opacity="0.05" d="M101.45 58.2227L101.445 58.2278L84.5287 60.7231L69.318 59.6716L87.9381 56.5198L101.445 58.097L101.45 58.1825V58.2227Z" fill="black"/>
<path d="M111.277 57.8831L93.9682 61.4299L93.5737 61.3897L78.363 59.8527V40.5541L96.9832 37.4023L110.49 38.9795L110.495 39.065V39.1052L111.277 57.8831Z" fill="#3F3D56"/>
<path opacity="0.1" d="M111.277 57.8831L93.9681 61.4299L93.5737 61.3897V41.6056L110.495 39.065L111.277 57.8831Z" fill="black"/>
<path opacity="0.05" d="M110.495 39.1052L110.49 39.1103L93.5737 41.6056L78.363 40.5541L96.9832 37.4023L110.49 38.9795L110.495 39.065V39.1052Z" fill="black"/>
<path d="M163.508 49.5914C163.308 49.3441 163.055 49.1447 162.768 49.0078C162.481 48.8709 162.167 48.7998 161.849 48.7998C161.531 48.7998 161.217 48.8709 160.93 49.0078C160.643 49.1447 160.39 49.3441 160.19 49.5914L160.548 50.0123L161.853 51.5693L163.159 50.0123L163.157 50.0099L163.508 49.5914ZM161.854 51.3246L160.75 50.0087C160.87 49.866 161.016 49.7477 161.181 49.6601C161.388 49.5507 161.619 49.4935 161.853 49.4935C162.088 49.4935 162.318 49.5507 162.526 49.6601C162.69 49.7477 162.837 49.866 162.957 50.0087L161.854 51.3246Z" fill="white"/>
<path d="M160.269 51.1916L159.745 50.5671C159.723 50.6895 159.713 50.8134 159.713 50.9376C159.713 52.1186 160.669 53.0757 161.848 53.0757L161.325 52.4512L160.269 51.1916Z" fill="white"/>
<path d="M163.952 50.5672L163.428 51.1917C163.428 51.1938 163.428 51.1957 163.427 51.1977L162.378 52.4494L162.372 52.4516L161.848 53.0761C163.028 53.0761 163.984 52.1189 163.984 50.9379C163.984 50.8136 163.974 50.6896 163.952 50.5672Z" fill="white"/>
<path d="M159.177 54.0879H159.087C159.073 54.0879 159.06 54.0918 159.048 54.099C159.036 54.1062 159.027 54.1165 159.021 54.1287L158.603 54.9476L158.184 54.1287C158.178 54.1165 158.169 54.1062 158.157 54.099C158.146 54.0918 158.132 54.0879 158.119 54.0879H158.028C158.015 54.088 158.003 54.0915 157.992 54.0979C157.98 54.1044 157.971 54.1136 157.965 54.1247C157.958 54.1361 157.955 54.1489 157.954 54.1621C157.954 54.1752 157.957 54.1882 157.963 54.1999L158.537 55.3294C158.543 55.3416 158.552 55.3518 158.564 55.359C158.575 55.3662 158.589 55.37 158.602 55.37C158.616 55.37 158.629 55.3662 158.641 55.359C158.652 55.3518 158.662 55.3416 158.668 55.3294L159.242 54.1999C159.248 54.1882 159.251 54.1752 159.25 54.1621C159.25 54.1489 159.246 54.1361 159.24 54.1247C159.233 54.1138 159.224 54.1046 159.213 54.0981C159.202 54.0917 159.19 54.0882 159.177 54.0879Z" fill="white"/>
<path d="M159.839 54.0867C159.669 54.0867 159.506 54.1544 159.385 54.2748C159.265 54.3953 159.198 54.5587 159.198 54.729C159.198 54.8994 159.265 55.0627 159.385 55.1832C159.506 55.3037 159.669 55.3713 159.839 55.3713C159.952 55.3717 160.063 55.3419 160.16 55.2851C160.192 55.2661 160.223 55.2444 160.251 55.2202V55.2972C160.251 55.3169 160.259 55.3357 160.273 55.3496C160.287 55.3635 160.306 55.3713 160.325 55.3713H160.407C160.426 55.3713 160.445 55.3635 160.459 55.3496C160.473 55.3357 160.481 55.3169 160.481 55.2972V54.7289C160.48 54.5587 160.412 54.3957 160.292 54.2753C160.172 54.155 160.009 54.0871 159.839 54.0866V54.0867ZM159.839 54.3161C159.935 54.3161 160.027 54.3492 160.101 54.4098C160.174 54.4704 160.225 54.5548 160.244 54.6485C160.262 54.7421 160.248 54.8394 160.203 54.9236C160.158 55.0079 160.085 55.0739 159.997 55.1105C159.909 55.147 159.811 55.1519 159.719 55.1241C159.628 55.0964 159.549 55.0378 159.496 54.9584C159.443 54.879 159.419 54.7836 159.429 54.6886C159.438 54.5935 159.48 54.5046 159.547 54.4371C159.585 54.3979 159.63 54.3669 159.681 54.3461C159.731 54.3253 159.785 54.3151 159.839 54.3161Z" fill="white"/>
<path d="M161.122 54.0823C161.049 54.0822 160.976 54.0966 160.908 54.1248C160.839 54.153 160.778 54.1943 160.725 54.2465C160.673 54.2987 160.632 54.3607 160.604 54.4289C160.576 54.4971 160.561 54.5702 160.561 54.644V55.2972C160.561 55.3168 160.569 55.3356 160.583 55.3495C160.597 55.3634 160.616 55.3713 160.635 55.3713H160.716C160.736 55.3713 160.755 55.3634 160.769 55.3496C160.783 55.3357 160.79 55.3168 160.791 55.2972V54.644C160.792 54.5568 160.828 54.4738 160.89 54.4128C160.952 54.3517 161.035 54.3175 161.122 54.3175C161.209 54.3175 161.293 54.3517 161.355 54.4128C161.417 54.4738 161.453 54.5568 161.454 54.644V55.2972C161.454 55.3168 161.462 55.3357 161.476 55.3496C161.49 55.3634 161.509 55.3713 161.528 55.3713H161.609C161.628 55.3713 161.647 55.3634 161.661 55.3495C161.675 55.3356 161.683 55.3168 161.683 55.2972V54.644C161.683 54.5702 161.669 54.4972 161.64 54.429C161.612 54.3608 161.571 54.2989 161.519 54.2467C161.467 54.1946 161.405 54.1532 161.337 54.125C161.269 54.0967 161.196 54.0822 161.122 54.0823Z" fill="white"/>
<path d="M162.405 54.0867C162.256 54.0863 162.112 54.1377 161.996 54.232C161.881 54.3264 161.802 54.4579 161.773 54.6041C161.743 54.7504 161.765 54.9022 161.835 55.0339C161.906 55.1655 162.019 55.2687 162.157 55.326C162.294 55.3832 162.447 55.3908 162.59 55.3476C162.732 55.3044 162.856 55.213 162.938 55.089C163.021 54.9651 163.059 54.8162 163.044 54.6677C163.029 54.5193 162.964 54.3805 162.858 54.2751C162.799 54.2146 162.729 54.1666 162.651 54.1342C162.573 54.1018 162.489 54.0856 162.405 54.0867ZM162.405 55.1418C162.31 55.1419 162.217 55.1087 162.143 55.0481C162.07 54.9875 162.019 54.9032 162.001 54.8095C161.982 54.7159 161.996 54.6186 162.041 54.5344C162.086 54.4501 162.159 54.3841 162.247 54.3475C162.335 54.311 162.433 54.3061 162.525 54.3339C162.616 54.3616 162.695 54.4201 162.748 54.4996C162.801 54.579 162.825 54.6744 162.815 54.7694C162.806 54.8645 162.764 54.9534 162.697 55.0209C162.659 55.0601 162.614 55.0911 162.564 55.1119C162.513 55.1327 162.459 55.1429 162.405 55.1418Z" fill="white"/>
<path d="M164.385 54.086C164.29 54.0856 164.196 54.1134 164.117 54.1659C164.075 54.1933 164.037 54.227 164.004 54.2658C163.972 54.227 163.934 54.1933 163.892 54.166C163.812 54.1133 163.718 54.0855 163.623 54.086C163.492 54.0866 163.366 54.1391 163.273 54.232C163.18 54.325 163.128 54.4509 163.128 54.5823V55.2968C163.128 55.3164 163.136 55.3353 163.149 55.3492C163.163 55.3631 163.182 55.3709 163.202 55.3709H163.283C163.303 55.3709 163.321 55.3631 163.335 55.3492C163.349 55.3353 163.357 55.3164 163.357 55.2968V54.5823C163.357 54.5473 163.364 54.5125 163.377 54.4801C163.39 54.4477 163.41 54.4182 163.435 54.3933C163.459 54.3685 163.489 54.3488 163.521 54.3354C163.554 54.3219 163.588 54.315 163.623 54.315C163.658 54.3143 163.693 54.3209 163.726 54.3343C163.758 54.3477 163.788 54.3676 163.812 54.3929C163.837 54.4173 163.858 54.4467 163.871 54.4793C163.885 54.512 163.891 54.547 163.89 54.5823V55.2968C163.89 55.3164 163.898 55.3353 163.912 55.3492C163.926 55.3631 163.945 55.3709 163.964 55.3709H164.045C164.065 55.3709 164.084 55.3631 164.098 55.3492C164.112 55.3353 164.119 55.3164 164.119 55.2968V54.5823C164.119 54.5473 164.126 54.5125 164.139 54.4801C164.153 54.4477 164.172 54.4182 164.197 54.3933C164.222 54.3685 164.251 54.3488 164.284 54.3354C164.316 54.3219 164.351 54.315 164.386 54.315C164.421 54.3143 164.456 54.3209 164.488 54.3343C164.521 54.3477 164.55 54.3676 164.574 54.3929C164.6 54.4173 164.62 54.4467 164.634 54.4794C164.647 54.512 164.653 54.547 164.653 54.5823V55.2968C164.653 55.3164 164.66 55.3353 164.674 55.3492C164.688 55.3631 164.707 55.3709 164.727 55.3709H164.808C164.827 55.3709 164.846 55.3631 164.86 55.3492C164.874 55.3353 164.882 55.3164 164.882 55.2968V54.5823C164.881 54.4507 164.829 54.3245 164.736 54.2314C164.643 54.1383 164.517 54.0858 164.386 54.0856L164.385 54.086Z" fill="white"/>
<path d="M166.057 54.2754C165.982 54.2006 165.89 54.1455 165.789 54.1148C165.689 54.0841 165.582 54.0788 165.478 54.0994C165.375 54.12 165.278 54.1658 165.196 54.2329C165.115 54.2999 165.051 54.386 165.011 54.4836C164.97 54.5812 164.955 54.6872 164.965 54.7923C164.975 54.8975 165.011 54.9984 165.07 55.0862C165.129 55.174 165.208 55.2459 165.301 55.2957C165.394 55.3454 165.498 55.3714 165.604 55.3713C165.716 55.3717 165.827 55.3419 165.925 55.285C165.957 55.266 165.987 55.2444 166.016 55.2202V55.2972C166.016 55.3168 166.024 55.3356 166.038 55.3495C166.052 55.3634 166.07 55.3713 166.09 55.3713H166.171C166.191 55.3713 166.21 55.3634 166.224 55.3495C166.238 55.3356 166.245 55.3168 166.245 55.2972V54.7289C166.246 54.6444 166.23 54.5606 166.198 54.4826C166.165 54.4046 166.117 54.3341 166.057 54.2754ZM165.604 54.3161C165.699 54.3161 165.791 54.3492 165.865 54.4098C165.939 54.4704 165.989 54.5547 166.008 54.6484C166.027 54.742 166.012 54.8392 165.967 54.9235C165.922 55.0077 165.85 55.0737 165.761 55.1102C165.673 55.1468 165.575 55.1516 165.484 55.1239C165.393 55.0962 165.314 55.0376 165.261 54.9582C165.208 54.8788 165.184 54.7835 165.193 54.6885C165.203 54.5934 165.245 54.5046 165.312 54.437C165.35 54.3979 165.395 54.3669 165.445 54.3461C165.495 54.3253 165.549 54.3151 165.604 54.3161Z" fill="white"/>
</g>
<defs>
<clipPath id="clip0">
<rect width="238.58" height="177" fill="white" transform="translate(0.420044)"/>
</clipPath>
</defs>
</svg>
