<svg width="132" height="65" viewBox="0 0 132 65" fill="none" xmlns="http://www.w3.org/2000/svg">
<path d="M65.7402 0H0.740234V65H65.7402V0Z" fill="#FFCB05"/>
<path d="M63.7049 32.3127C63.7049 39.2513 50.0655 44.8756 33.2429 44.8756C16.4168 44.8756 2.77734 39.2513 2.77734 32.3127C2.77734 25.3741 16.4168 19.7534 33.2429 19.7534C50.0655 19.7534 63.7049 25.3741 63.7049 32.3127Z" fill="#00678F"/>
<path d="M13.7246 38.5131L16.8752 25.9502H21.909V33.2668L25.2181 25.9502H30.4139L27.2669 38.5131H23.9578L25.8446 30.4043L21.909 38.5131H19.2373V30.4043L17.1849 38.5131H13.7246Z" fill="white"/>
<path d="M31.4336 38.6713L31.9053 36.9214H35.5276L35.0523 38.6713H31.4336Z" fill="#ED1D24"/>
<path d="M39.5371 38.5131L42.6841 25.9502H46.3064L47.8836 32.6331L49.6119 25.9502H52.9173L49.7703 38.5131H46.3064L44.5745 31.6753L42.8426 38.5131H39.5371Z" fill="white"/>
<path d="M31.4331 25.9502L30.6445 29.1332H33.9536L32.1712 36.0358H35.7899L37.5759 29.1332H40.8813L41.6663 25.9502H31.4331Z" fill="#FFCB05"/>
<path d="M104.258 43.3837L100.276 44.0297L100.315 58.4108C100.326 61.6351 102.223 63.1545 105.397 63.1445C106.16 63.1445 106.876 62.9982 106.876 62.9982L106.869 60.6044C106.826 60.5964 106.532 60.5964 106.31 60.5924C104.636 60.5387 104.303 59.6228 104.299 58.5671L104.277 50.4731L106.841 50.4651L106.833 47.6265L104.271 47.6345L104.258 43.3837H104.258ZM128.894 60.5202C127.276 60.4031 126.936 59.6989 126.934 58.523L126.89 43.2995L123 43.9706L123.039 58.2846C123.047 61.6751 124.904 63.1235 128.003 63.1144C128.668 63.1144 129.49 62.9552 129.49 62.9552L129.485 60.5253C129.485 60.5253 129.12 60.5365 128.894 60.5173L128.894 60.5202ZM89.9451 50.4186L89.9743 63.0619L93.9353 63.0507L93.9031 51.1475C94.4219 50.6477 95.5189 50.203 96.5575 50.1579C97.5236 50.1179 98.1512 50.3172 98.1512 50.3172L99.2411 47.8652C98.813 47.6619 97.7986 47.4015 96.621 47.4045C94.9145 47.4125 92.2963 47.9143 89.9451 50.4184L89.9451 50.4186ZM115.462 60.5451C114.397 60.5451 113.673 60.2025 113.204 59.7007C112.502 58.9495 112.186 57.404 112.265 55.7663L120.644 55.7431V55.3595C120.556 49.9037 118.677 47.4297 114.583 47.4407C110.016 47.4535 108.246 51.6314 108.222 55.5628C108.202 58.0438 109.149 60.5398 110.884 61.9611C111.928 62.8255 113.386 63.2993 115.072 63.2953C115.992 63.2953 116.953 63.1571 117.827 62.8856C119.505 62.3627 120.744 61.4653 120.744 61.4653L119.639 59.2257C119.445 59.373 117.772 60.5388 115.462 60.5448V60.5451ZM114.589 50.3144C116.318 50.3063 116.576 52.1734 116.578 53.3302L112.375 53.3414C112.438 51.853 113.055 50.3185 114.589 50.3145V50.3144ZM74.4729 47.4292C72.6153 47.4372 70.9491 47.9611 69.2376 48.8165L68.8004 49.0369L69.8511 51.3526L70.4414 51.0741C71.6493 50.5293 72.9457 50.1647 74.1083 50.2097C75.5145 50.2642 76.0938 50.9039 76.0978 52.245L76.0994 53.0293L73.7956 53.0373C70.0935 53.0461 67.7987 55.0065 67.7402 58.0334C67.7493 60.9089 70.17 63.3849 73.5256 63.3749C76.2314 63.3669 78.5232 62.4845 80.0665 60.942L80.0453 52.7298C80.0332 48.7304 77.1561 47.4223 74.4725 47.4303L74.4729 47.4292ZM76.1155 60.1828C75.7337 60.4502 74.952 60.6836 74.0987 60.6856C72.5363 60.6936 71.8271 59.5017 71.8493 58.1135C71.8744 56.9606 72.5927 55.6545 74.544 55.6495L76.1024 55.6415L76.1155 60.1788L76.1155 60.1828ZM82.9825 63.0683L86.8679 63.0571L86.8246 47.6713L82.9411 48.3123L82.9824 63.0681L82.9825 63.0683ZM84.9058 41.5254C83.5257 41.5254 82.4004 42.6342 82.4065 43.9884C82.4081 45.3696 83.5005 46.4493 84.8856 46.4444C86.2697 46.4444 87.3507 45.3596 87.3456 43.9924C87.3668 43.3394 87.125 42.7224 86.6687 42.2596C86.2063 41.7838 85.5787 41.5234 84.9058 41.5254" fill="#F21016"/>
<path d="M113.689 8.61136C113.036 6.55604 111.777 4.86628 109.954 3.59327C109.74 3.42099 107.46 1.61304 103.173 1.62506C99.2502 1.63628 94.9537 3.15152 90.4014 6.13833L90.2584 6.23353L90.2362 6.24554L89.8292 6.50092L89.4787 6.73834C88.5488 7.36831 87.6593 8.05045 86.8323 8.77762C84.9112 10.6366 82.7222 13.7396 82.8683 16.3688C82.9287 17.4877 83.3991 18.3961 84.2665 19.0682C85.0472 19.6761 86.0234 19.9806 87.1597 19.9766C89.4988 19.9686 92.0555 18.6996 93.8033 17.6259L94.1337 17.3995C94.439 17.2012 94.7432 16.9978 95.0464 16.7915L95.3476 16.5922C97.8308 14.9265 100.403 13.2037 103.299 12.1931C104.05 11.9317 104.707 11.8055 105.314 11.8035C105.613 11.8035 105.904 11.8323 106.184 11.8996C107.065 12.099 107.714 12.5947 108.101 13.378C108.778 14.7412 108.624 16.8907 107.714 18.8608C106.472 21.5462 104.336 24.1934 101.362 26.7346C99.8516 28.0246 98.4483 29.0242 97.2012 29.7043L97.0894 29.7636C96.5101 30.0841 95.8543 30.4416 95.1643 30.7061L95.0696 30.7413C94.8631 30.8183 94.6888 30.8885 94.5306 30.9406C92.6509 31.4474 92.6821 30.5751 92.9702 29.8829C93.1254 29.5043 93.6512 28.8503 94.2899 28.1852C94.6384 27.8336 94.995 27.5011 95.3637 27.1565C95.7596 26.7899 96.1656 26.4124 96.5736 25.9977L96.6643 25.9105C97.17 25.4017 97.8651 24.7066 97.8217 23.711C97.7602 22.3928 96.4094 21.5746 95.1441 21.5425H95.0525C93.8335 21.5425 92.6851 22.2577 91.9336 22.8566C91.1831 23.4586 90.3793 24.362 89.8474 25.2104C89.0787 26.4354 87.4528 29.5564 89.0475 32.0444C89.6882 33.04 90.75 33.5428 92.2076 33.5388C93.2271 33.5388 94.4299 33.2864 95.7868 32.7936C97.8167 32.0564 99.4214 31.0428 100.974 30.0612L101.392 29.7958C103.036 28.7611 104.634 27.5572 106.286 26.1159C109.931 22.9247 112.117 19.8047 113.364 15.9896C113.867 14.444 114.581 11.4322 113.689 8.61168" fill="#F21016"/>
</svg>
