<svg width="41" height="41" viewBox="0 0 41 41" fill="none" xmlns="http://www.w3.org/2000/svg">
<path d="M40.7402 0.875H0.740234V40.875H40.7402V0.875Z" fill="#FFCB05"/>
<path d="M39.488 20.7595C39.488 25.0294 31.0945 28.4905 20.7422 28.4905C10.3877 28.4905 1.99414 25.0294 1.99414 20.7595C1.99414 16.4897 10.3877 13.0308 20.7422 13.0308C31.0945 13.0308 39.488 16.4897 39.488 20.7595Z" fill="#00678F"/>
<path d="M8.73047 24.5752L10.6693 16.8442H13.767V21.3468L15.8034 16.8442H19.0008L17.0642 24.5752H15.0278L16.1889 19.5852L13.767 24.5752H12.1229V19.5852L10.8599 24.5752H8.73047Z" fill="white"/>
<path d="M19.6289 24.6726L19.9192 23.5957H22.1483L21.8558 24.6726H19.6289Z" fill="#ED1D24"/>
<path d="M24.6152 24.5752L26.5519 16.8442H28.781L29.7515 20.9568L30.8151 16.8442H32.8492L30.9126 24.5752H28.781L27.7152 20.3674L26.6494 24.5752H24.6152Z" fill="white"/>
<path d="M19.6278 16.8442L19.1426 18.803H21.1789L20.0821 23.0508H22.309L23.408 18.803H25.4422L25.9252 16.8442H19.6278Z" fill="#FFCB05"/>
</svg>
